<svg xmlns="http://www.w3.org/2000/svg" viewBox="0 0 500 506"><defs><style>.cls-1{fill:#fff8f3;}.cls-2{fill:#f3725f;}.cls-3{fill:#dd301d;}.cls-4{fill:#fa5b41;}.cls-5{fill:#8fd1ca;}.cls-10,.cls-19,.cls-20,.cls-24,.cls-26,.cls-27,.cls-29,.cls-6{fill:none;stroke-linecap:round;stroke-linejoin:round;}.cls-10,.cls-19,.cls-24,.cls-29,.cls-6{stroke:#332b33;}.cls-6{stroke-width:1.17px;}.cls-25,.cls-7{fill:#332b33;}.cls-8{fill:#e1fffe;}.cls-9{fill:#c7eae8;}.cls-10{stroke-width:1.18px;}.cls-11{fill:#bde5e1;}.cls-12{fill:#2d1a14;}.cls-13{fill:#ffbf80;}.cls-14{fill:#7f7fdd;}.cls-15{fill:#f2e9e2;}.cls-16{fill:#efdece;}.cls-17{fill:#6666c6;}.cls-18{fill:#fff;}.cls-19{stroke-width:1.15px;}.cls-20{stroke:#e0c7b3;stroke-width:1.63px;}.cls-21{fill:#e0c7b3;}.cls-22{fill:#da68dd;}.cls-23{fill:#9dc9c6;}.cls-24{stroke-width:3.18px;}.cls-25{font-size:19.28px;font-family:ArchivoBlack-Regular, Archivo Black;letter-spacing:0.1em;}.cls-26{stroke:#fa5b41;stroke-width:5.33px;}.cls-27{stroke:#fff;stroke-width:3.55px;}.cls-28{fill:#f9a813;}.cls-29{stroke-width:0.69px;}</style></defs><g id="Layer_2" data-name="Layer 2"><g id="OBJECTS"><rect class="cls-1" width="500" height="475.88"/><path class="cls-2" d="M188.3,186.63h40.35a14.52,14.52,0,0,1,14.52,14.52v55.16a32.56,32.56,0,0,1-32.56,32.56H209a32.56,32.56,0,0,1-32.56-32.56V198.49A11.86,11.86,0,0,1,188.3,186.63Z"/><path class="cls-2" d="M217.2,262.51c-1.53-8.28,2.62-16.65,8.1-23s12.32-11.52,17.81-17.91a59.62,59.62,0,0,0,11.23-20.5c2.35-7.25,2.74-17.89,8-22.7a2.19,2.19,0,0,1,3.65,1.7c-.18,8,.4,16.22-.07,24.15-.95,16.11-2,32.51-7.7,47.59s-17.07,28.9-32.53,33.54"/><path class="cls-2" d="M237.08,205h0a5.92,5.92,0,0,1-5.92-5.92V121.34a5.92,5.92,0,0,1,5.92-5.92h0a5.93,5.93,0,0,1,5.93,5.92v77.78A5.93,5.93,0,0,1,237.08,205Z"/><path class="cls-2" d="M217.74,196h0a5.92,5.92,0,0,1-5.92-5.92V112.26a5.92,5.92,0,0,1,5.92-5.92h0a5.92,5.92,0,0,1,5.92,5.92V190A5.92,5.92,0,0,1,217.74,196Z"/><path class="cls-2" d="M199.58,200.7h0a5.93,5.93,0,0,1-5.92-5.93V117a5.92,5.92,0,0,1,5.92-5.92h0A5.92,5.92,0,0,1,205.5,117v77.77A5.93,5.93,0,0,1,199.58,200.7Z"/><path class="cls-2" d="M182.21,224.38h0a5.92,5.92,0,0,1-5.92-5.92V140.69a5.92,5.92,0,0,1,5.92-5.92h0a5.92,5.92,0,0,1,5.92,5.92v77.77A5.92,5.92,0,0,1,182.21,224.38Z"/><polygon class="cls-2" points="191.45 278.81 175.46 414.42 247.71 414.42 232.9 262.23 191.45 278.81"/><path class="cls-3" d="M420.52,400.42h-180c-15.93,0-28.4-12.73-28.42-29l-.6-28.68a3.56,3.56,0,0,1,7.11-.15l.59,28.72v.07c0,12.29,9.37,21.91,21.32,21.91h180a20.13,20.13,0,0,0,20.1-20.1V347.9a22.12,22.12,0,0,0-22.09-22.09h-8.85a33,33,0,0,1-33-33V266.3a3.56,3.56,0,0,1,7.11,0v26.51a25.92,25.92,0,0,0,25.9,25.89h8.85a29.23,29.23,0,0,1,29.2,29.2v25.31A27.25,27.25,0,0,1,420.52,400.42Z"/><path class="cls-4" d="M371.23,393.31H286.39c-.91,2.42-1.89,4.81-3,7.11h85.72A52.41,52.41,0,0,0,371.23,393.31Z"/><path class="cls-4" d="M383.83,294.28q-3.43,1.19-7,2.09a33.08,33.08,0,0,0,25.77,28.68c1.17-2.18,2.27-4.38,3.32-6.62A25.92,25.92,0,0,1,383.83,294.28Z"/><path class="cls-5" d="M276.84,276.54V384.27a6,6,0,0,0,6,6h1.49a6,6,0,0,0,6-6V276.54Z"/><path class="cls-5" d="M290.79,277H276a2.27,2.27,0,0,1-2.27-2.27h0a2.27,2.27,0,0,1,2.27-2.26h14.78a2.27,2.27,0,0,1,2.27,2.26h0A2.27,2.27,0,0,1,290.79,277Z"/><path class="cls-5" d="M330.61,276.22V383.94a6,6,0,0,0,6,6h1.49a6,6,0,0,0,6-6V276.22Z"/><path class="cls-4" d="M276.84,305v79.24a6,6,0,0,0,6,6h1.49a6,6,0,0,0,6-6V305Z"/><path class="cls-4" d="M330.61,303.28v80.66a6,6,0,0,0,6,6h1.49a6,6,0,0,0,6-6V303.28Z"/><path class="cls-5" d="M344.56,276.69H329.77a2.26,2.26,0,0,1-2.26-2.26h0a2.27,2.27,0,0,1,2.26-2.27h14.79a2.27,2.27,0,0,1,2.26,2.27h0A2.27,2.27,0,0,1,344.56,276.69Z"/><path class="cls-5" d="M303.18,276V383.7a6,6,0,0,0,6,6h1.49a6,6,0,0,0,6-6V276Z"/><path class="cls-5" d="M303.18,276V383.7a6,6,0,0,0,6,6h1.49a6,6,0,0,0,6-6V276Z"/><path class="cls-5" d="M303.18,276V383.7a6,6,0,0,0,6,6h1.49a6,6,0,0,0,6-6V276Z"/><path class="cls-4" d="M303.18,303.17V383.7a6,6,0,0,0,6,6h1.49a6,6,0,0,0,6-6V303.17Z"/><path class="cls-5" d="M317.13,276.46H302.35a2.27,2.27,0,0,1-2.27-2.27h0a2.27,2.27,0,0,1,2.27-2.27h14.78a2.27,2.27,0,0,1,2.27,2.27h0A2.27,2.27,0,0,1,317.13,276.46Z"/><line class="cls-6" x1="269.08" y1="352.69" x2="352.07" y2="352.69"/><line class="cls-6" x1="269.08" y1="341.96" x2="268.92" y2="413.25"/><path class="cls-7" d="M271.7,352.57a3,3,0,1,1-3-3A3,3,0,0,1,271.7,352.57Z"/><line class="cls-6" x1="353.62" y1="342.55" x2="353.74" y2="414.42"/><path class="cls-7" d="M356.24,353.16a3,3,0,1,1-3-3A3,3,0,0,1,356.24,353.16Z"/><polyline class="cls-6" points="340.28 414.42 353.26 383.45 270.75 383.45 282.96 414.42"/><rect class="cls-8" x="195.6" y="306.64" width="34.94" height="43.82" rx="3.71"/><rect class="cls-9" x="199.35" y="311.35" width="27.43" height="34.41" rx="2.91"/><path class="cls-10" d="M194.61,205.6c3.8,2.61,6.52,6.51,8.8,10.51a82.34,82.34,0,0,1,10.24,49.64"/><path class="cls-10" d="M238.29,229.7c-3.82,3.22-7.68,6.47-10.68,10.46s-5.12,8.84-5,13.83"/><path class="cls-11" d="M34.41,279.47c10.46,15,43.11,20.41,54.31,33.72C98,324.26,98,340.87,106.14,352.65c23.14,33.46,83-5,57.87-51.74-8.52-15.81-25.24-19-39.55-24.92-15.72-6.52-18.85-23.51-29.91-35.23-11.3-12-31.15-19.72-47-11.64C30,238.12,23.16,263.29,34.41,279.47Z"/><path class="cls-12" d="M102.53,174.14a8.38,8.38,0,0,0-5.94,2.56A10.12,10.12,0,0,0,94,182.6c-.34,3,.29,6.4-1.57,8.79s-5.25,2.63-7.6,4.43A7.31,7.31,0,0,0,83,205c-5.91,5.35-15.74,3.69-22.73,7.54A14.4,14.4,0,1,0,75,237.26c1.76,2.24,4.91,3.32,7.74,3.66a25.56,25.56,0,0,0,19.88-6.23,11.93,11.93,0,0,0,5.06,1.88,17,17,0,0,0,2.76.21,24.62,24.62,0,0,0,6.35-.61,16.37,16.37,0,0,0,6.27-3.12c1.08,1.35,3.8,2,5.53,2a19.32,19.32,0,0,0,7-.77A11.79,11.79,0,0,0,143,223.81a15.29,15.29,0,0,0-5.45-11.94,22,22,0,0,0-12.41-4.94c-2.21-.21-4.49-.15-6.59-.9a9.15,9.15,0,0,1-5.7-6.23c-1-4,.73-8.11.93-12.22C114,181.65,111.93,173.54,102.53,174.14Z"/><path class="cls-13" d="M128.81,237.08q.3-.68.63-1.32Z"/><path class="cls-14" d="M78.83,228.8a13.37,13.37,0,0,1-.79-6.54,11,11,0,0,1,1.57-4.19,16.75,16.75,0,0,1,5.62-5.27,26.45,26.45,0,0,1,4.94-2.32l.73-.26q1.95-.63,4-1.08a44.43,44.43,0,0,1,18.23-.2,42.2,42.2,0,0,1,6.42,1.8,18.7,18.7,0,0,1,8.55,6.37,18.25,18.25,0,0,1,3.39,7.92,14.36,14.36,0,0,1,.13,3.95c0,.24-.06.47-.1.71a.94.94,0,0,0-.69.38,33.15,33.15,0,0,0-4.79,9.12c-.06.16-.11.33-.16.49a.92.92,0,0,0-.26.26,29.13,29.13,0,0,0-3.48,11,77.13,77.13,0,0,0-2,12.37,1,1,0,0,0-.07.36c0,.14,0,.27,0,.4-.23,2.61-.36,5.22-.46,7.83h-.12a111.6,111.6,0,0,1-28.63-1,12.84,12.84,0,0,1-5.26-1.74c-3.39-2.31-4-7.06-3.23-11.16,0-.25.09-.49.15-.73.92-4.26,2.81-8.41,2.52-12.75C84.58,239,80.65,234,78.83,228.8Z"/><path class="cls-2" d="M110,207.44c-3.05-2.43-4.25-7-3.65-10.75l-7-3c.81,4.41-1.55,13.93-5.48,16.08,2.37,2.85,6.66,4.26,10.38,4.17,3.57-.09,6.79-.72,9-4.94A5.12,5.12,0,0,1,110,207.44Z"/><path class="cls-15" d="M86.4,395.54a8.22,8.22,0,0,1-4.19,8.34c-2,1-4.32,1.19-6.49,1.8a16.13,16.13,0,0,0-9.92,8.11H94.45V395.28Z"/><path class="cls-15" d="M75.06,405.39c.49-.13,1-.24,1.48-.35a9.28,9.28,0,0,0,9.52,4.37A18.6,18.6,0,0,0,94.45,406v7.81H64.8A16.7,16.7,0,0,1,75.06,405.39Z"/><path class="cls-15" d="M120.45,393.85a8.9,8.9,0,0,0,4.54,9c2.17,1.13,4.68,1.3,7,1.95a17.5,17.5,0,0,1,10.75,8.79h-31V393.57Z"/><path class="cls-16" d="M132,404.83c-2.35-.65-4.86-.82-7-1.95l-.25-.15a13.36,13.36,0,0,1-13,1.7v9.19h31A17.5,17.5,0,0,0,132,404.83Z"/><path class="cls-14" d="M110.82,395.32c-.56-8.84-6.22-103.76-5.7-112.61l14.6-11c14.93,17.5,4.64,113.72,4.26,123.47Z"/><path class="cls-14" d="M83.2,396.1c0-11.28-8.7-95.88,2.39-126l18.56,9.54c.15,10.06-7.47,106.33-8.68,116.31Z"/><path class="cls-14" d="M119.83,270.37l-34.31-1.2s-4.41,17.36-4.73,27.11l21.92,5.6h3l20.81-7.39S124.46,275.94,119.83,270.37Z"/><path class="cls-14" d="M123.19,237.89l.68,24.39a7,7,0,0,1-3.4,6.18l-2.4,1.43-4.32-3.2,2.72-21.28Z"/><path class="cls-17" d="M86,271.65h32.8a1.69,1.69,0,0,0,1.68-1.68h0a1.68,1.68,0,0,0-1.68-1.68H86A1.68,1.68,0,0,0,84.31,270h0A1.69,1.69,0,0,0,86,271.65Z"/><path class="cls-2" d="M105.09,201.31h0a5.52,5.52,0,0,0,5.5-5.5v-8a5.52,5.52,0,0,0-5.5-5.5h0a5.51,5.51,0,0,0-5.49,5.5v8A5.51,5.51,0,0,0,105.09,201.31Z"/><path class="cls-2" d="M95.61,194.17a2.52,2.52,0,1,0,2.51-2.51A2.51,2.51,0,0,0,95.61,194.17Z"/><path class="cls-18" d="M108.86,194.86a2,2,0,0,1,0,.34,1.81,1.81,0,0,1-3.62,0,2,2,0,0,1,0-.34Z"/><path class="cls-19" d="M110.12,299.34s-6.53,5.06-13.49,0"/><path class="cls-20" d="M110.11,407.18s12.77.13,16,5.57"/><path class="cls-21" d="M142.77,415.19H112.06a1.63,1.63,0,0,1-1.63-1.63h0a1.64,1.64,0,0,1,1.63-1.63h30.71a1.64,1.64,0,0,1,1.63,1.63h0A1.64,1.64,0,0,1,142.77,415.19Z"/><path class="cls-21" d="M129.47,403.34l-4.6,3.34a.86.86,0,0,1-1.2-.19h0a.86.86,0,0,1,.19-1.2l4.6-3.34a.85.85,0,0,1,1.2.19h0A.87.87,0,0,1,129.47,403.34Z"/><path class="cls-21" d="M132.9,404.79l-4.59,3.35a.87.87,0,0,1-1.2-.19h0a.85.85,0,0,1,.19-1.2l4.59-3.35a.86.86,0,0,1,1.2.19h0A.85.85,0,0,1,132.9,404.79Z"/><path class="cls-15" d="M85.93,396a8.89,8.89,0,0,1-4.54,6.5c-2.16,1.13-4.68,1.3-7,2a17.46,17.46,0,0,0-10.74,8.78h31V396Z"/><path class="cls-16" d="M74.36,404.44c2.35-.66,4.87-.83,7-2l.26-.14a13.37,13.37,0,0,0,13,1.69v9.19h-31A17.46,17.46,0,0,1,74.36,404.44Z"/><path class="cls-20" d="M92.58,406.77s-12.77.14-16,5.57"/><path class="cls-21" d="M63.92,414.79H94.63a1.64,1.64,0,0,0,1.63-1.63h0a1.64,1.64,0,0,0-1.63-1.63H63.92a1.63,1.63,0,0,0-1.63,1.63h0A1.64,1.64,0,0,0,63.92,414.79Z"/><path class="cls-21" d="M76.92,402.94l4.6,3.35a.87.87,0,0,0,1.2-.19h0a.86.86,0,0,0-.19-1.2l-4.6-3.35a.86.86,0,0,0-1.2.19h0A.86.86,0,0,0,76.92,402.94Z"/><path class="cls-21" d="M73.48,404.39l4.6,3.35a.86.86,0,0,0,1.2-.19h0a.86.86,0,0,0-.19-1.2L74.49,403a.87.87,0,0,0-1.2.19h0A.86.86,0,0,0,73.48,404.39Z"/><path class="cls-11" d="M132.87,173.35h32.27a0,0,0,0,1,0,0v40a6.92,6.92,0,0,1-6.92,6.92H140.78a7.91,7.91,0,0,1-7.91-7.91v-39A0,0,0,0,1,132.87,173.35Z"/><path class="cls-5" d="M136.22,178.21h25.57a0,0,0,0,1,0,0v31.66a5.48,5.48,0,0,1-5.48,5.48H142.49a6.27,6.27,0,0,1-6.27-6.27V178.21A0,0,0,0,1,136.22,178.21Z"/><path class="cls-4" d="M149.1,187.74c-4.17,1.52-8.52,1.5-12.88,1.23v20.11a6.27,6.27,0,0,0,6.27,6.27h13.82a5.48,5.48,0,0,0,5.48-5.48v-26C157.27,184,153.44,186.15,149.1,187.74Z"/><path class="cls-3" d="M137.5,205c-.44.48-.87,1-1.28,1.47v2.66a6.27,6.27,0,0,0,6.27,6.27h13.82a5.48,5.48,0,0,0,5.48-5.48V193.21C152.62,192.6,143.56,198.43,137.5,205Z"/><path class="cls-22" d="M92.81,237.41a31.83,31.83,0,0,0,17.37,17.34c.48.2.69-.58.22-.77A30.87,30.87,0,0,1,93.59,237.2c-.2-.47-1-.27-.78.21Z"/><path class="cls-14" d="M148,237.43l-3.2,3.23-13.46-22.49-.11-.18a8.56,8.56,0,0,0-14.46,9.15l18.29,28.92.69,1.08a7.18,7.18,0,0,0,11.47.89l.78-1Z"/><path class="cls-2" d="M168.4,223.28a5.61,5.61,0,0,0-.4-2.3,6.46,6.46,0,0,0-.91-1.36l-2.63-3.27a26.28,26.28,0,0,0-8.53.33c-.06.24.2.44.43.54,1.79.72,4.08-.43,5.65.69a5.22,5.22,0,0,0-2.9.84,1.68,1.68,0,0,0-.75.67,1,1,0,0,0,1.24,1.36,1.49,1.49,0,0,0-.13,1.95,3.11,3.11,0,0,0,1.79,1.31,2.54,2.54,0,0,0,2.51,1.34,13.8,13.8,0,0,1-3,1.79,12.59,12.59,0,0,0,3,4.14c1.06-1.22,2.09-2.38,3.15-3.69.3-.36.59-.47.82-.88A6.81,6.81,0,0,0,168.4,223.28Z"/><path class="cls-14" d="M109.05,248.67l-.21.27L87.12,219.25a9.73,9.73,0,0,0-.65-.79A9.58,9.58,0,0,0,72.3,231.35l30.78,33.83.53.58A6.58,6.58,0,0,0,105,266.9a6.71,6.71,0,0,0,4.08,1.05Z"/><path class="cls-2" d="M163.41,222.14l-18.57,18.52-1.35-2.26a84,84,0,0,1-10.91,13.68l2.52,4,.69,1.08a7.18,7.18,0,0,0,11.47.89l19.8-30.9Z"/><path class="cls-2" d="M132.87,221.75l-3.46,4.42L117.7,239.61l-7.55,7.69-1.31,1.64-6.29-8.59c-3.71,4-7.27,8.17-11.29,11.84l11.82,13,.53.58A6.58,6.58,0,0,0,105,266.9a6.83,6.83,0,0,0,9.43-2.09l6.34-9.95,5.79-11.21,7.3-13.06C132.15,226.78,137.52,225.07,132.87,221.75Z"/><path class="cls-2" d="M127.69,228.29l6.81-9.46,7.8-4.32s.5,1.49-2,3c0,0-3.32,1.49-3.49,2.16l3.3,3.64a2.19,2.19,0,0,1,0,3l-5.75,6-5.14,1.33-2.66-4.15Z"/><circle class="cls-11" cx="57.79" cy="323.88" r="14.83" transform="translate(-212.09 135.73) rotate(-45)"/><circle class="cls-11" cx="160.07" cy="272.19" r="7.9"/><path class="cls-11" d="M245.22,87.62a4.89,4.89,0,1,1-4.89-4.88A4.89,4.89,0,0,1,245.22,87.62Z"/><line class="cls-19" x1="90.76" y1="224.1" x2="101.56" y2="238.51"/><line class="cls-19" x1="122.31" y1="220.79" x2="122.45" y2="229.72"/><rect class="cls-23" x="261.43" y="102.35" width="62.57" height="62.57" rx="8.41"/><rect class="cls-18" x="287.03" y="113.26" width="11.38" height="40.95"/><rect class="cls-18" x="287.03" y="113.26" width="11.38" height="40.95" transform="translate(426.45 -158.98) rotate(90)"/><path class="cls-12" d="M99.3,191.78a11.35,11.35,0,0,1,.79,2.89,6,6,0,0,0,1.43-5,8.29,8.29,0,0,0,5.73-2.47,7.32,7.32,0,0,0,1.26,4.42,5.31,5.31,0,0,0,3.44,2.25c.27-3.56.45-9.38-1.21-12.35a6.33,6.33,0,0,0-10.88-.19C98.27,183.93,98.08,188.9,99.3,191.78Z"/><path class="cls-23" d="M165.52,173.54H131a2.88,2.88,0,0,1-2.88-2.88h0a2.88,2.88,0,0,1,2.88-2.88h34.57a2.88,2.88,0,0,1,2.88,2.88h0A2.88,2.88,0,0,1,165.52,173.54Z"/><path class="cls-23" d="M140.73,154.33h15.33a4.08,4.08,0,0,1,4.08,4.08v10.52a0,0,0,0,1,0,0H137.29a0,0,0,0,1,0,0V157.78A3.45,3.45,0,0,1,140.73,154.33Z"/><path class="cls-1" d="M150.93,160.38a2.21,2.21,0,1,1-2.21-2.21A2.21,2.21,0,0,1,150.93,160.38Z"/><circle class="cls-11" cx="293.01" cy="213.38" r="7.4"/><path class="cls-11" d="M465,164.82a6.22,6.22,0,1,1-6.21-6.22A6.22,6.22,0,0,1,465,164.82Z"/><circle class="cls-11" cx="438.68" cy="89.61" r="3.26"/><circle class="cls-11" cx="331.5" cy="75.99" r="7.99"/><path class="cls-11" d="M348.38,105.9a3,3,0,1,1-3-3A3,3,0,0,1,348.38,105.9Z"/><path class="cls-11" d="M284.3,248.39a4,4,0,1,1-4-4A4,4,0,0,1,284.3,248.39Z"/><path class="cls-11" d="M406,362.08a5.77,5.77,0,1,1-5.77-5.78A5.77,5.77,0,0,1,406,362.08Z"/><path class="cls-11" d="M471.71,377.62a4.44,4.44,0,1,1-4.44-4.44A4.44,4.44,0,0,1,471.71,377.62Z"/><circle class="cls-11" cx="451.13" cy="291.02" r="14.66" transform="translate(91.31 689.45) rotate(-80.74)"/><path class="cls-11" d="M466.68,260.82a5.78,5.78,0,1,1-5.78-5.77A5.78,5.78,0,0,1,466.68,260.82Z"/><path class="cls-24" d="M52.69,415.56h397"/><text class="cls-25" transform="translate(163.98 500.85)"> </text><path class="cls-4" d="M443.37,182.38h0s-.05-.11-.08-.16c-.28-.55-.56-1.09-.85-1.63l-3.81-7.32-11.72-22.52-15-28.75q-7.23-13.9-14.47-27.8c-3.41-6.56-8.94-18.29-12.35-24.84-.19-.38-1.14-1.46-1.9.06L326.43,182.75h0a65.22,65.22,0,1,0,116.9-.37Z"/><path class="cls-3" d="M443.37,182.38h0l-.08-.16c-.28-.55-.56-1.09-.85-1.63l-3.81-7.32-11.72-22.52-11.72-22.51a144.55,144.55,0,0,1-.88,22c-2.21,18.47-8.52,37.63-21.75,51.2a56.73,56.73,0,0,1-37.19,16.79,85.34,85.34,0,0,1-35.56-5.74,65.21,65.21,0,1,0,123.56-30.11Z"/><path class="cls-26" d="M433.9,212.35a54.68,54.68,0,0,1-10,27.61,67.64,67.64,0,0,1-5.51,6.8"/><path class="cls-26" d="M429.12,186.47c2.41,4.35,3.2,9.07,4.2,13.8"/><path class="cls-27" d="M360.45,135.1c-5,12.25-10.89,24.09-16.22,36.33"/><path class="cls-27" d="M377,98c-2.57,6.71-5.53,12.64-8.35,18.7"/><rect class="cls-28" x="276.55" y="263.56" width="14.56" height="10.07"/><line class="cls-29" x1="276.42" y1="267.38" x2="291" y2="267.38"/><line class="cls-29" x1="279.54" y1="273.63" x2="279.54" y2="267.38"/><line class="cls-29" x1="281.8" y1="273.63" x2="281.8" y2="267.38"/><rect class="cls-28" x="302.5" y="262.97" width="14.56" height="10.07"/><line class="cls-29" x1="302.37" y1="266.79" x2="316.95" y2="266.79"/><line class="cls-29" x1="305.5" y1="273.04" x2="305.5" y2="266.79"/><line class="cls-29" x1="307.75" y1="273.04" x2="307.75" y2="266.79"/><rect class="cls-28" x="329.21" y="262.82" width="14.56" height="10.07"/><line class="cls-29" x1="329.08" y1="266.64" x2="343.66" y2="266.64"/><line class="cls-29" x1="332.2" y1="272.89" x2="332.2" y2="266.64"/><line class="cls-29" x1="334.46" y1="272.89" x2="334.46" y2="266.64"/></g></g></svg>