<svg xmlns="http://www.w3.org/2000/svg" xmlns:xlink="http://www.w3.org/1999/xlink" viewBox="0 0 452.4 626.76"><defs><style>.cls-1{fill:none;}.cls-2{fill:#6eb2ff;}.cls-3{clip-path:url(#clip-path);}.cls-4{fill:#0aa728;}.cls-5{fill:#009419;}.cls-6{fill:#fff;}.cls-7{fill:#85beff;}.cls-8{fill:#025c91;}.cls-9{clip-path:url(#clip-path-2);}.cls-10{fill:#531200;}.cls-11{fill:#a0e9f2;}.cls-12{fill:#012227;}.cls-13{fill:#004976;}.cls-14{fill:#94422b;}.cls-15{fill:#c6f1f7;}.cls-16{fill:#f9fdff;}.cls-17{fill:#b33607;}.cls-18{fill:#feb630;}.cls-19{fill:#b05d46;}.cls-20{fill:#3c0c00;}</style><clipPath id="clip-path" transform="translate(0 -11.02)"><rect class="cls-1" x="18.89" y="244.49" width="415.48" height="239.36"/></clipPath><clipPath id="clip-path-2" transform="translate(0 -11.02)"><rect class="cls-1" x="57.89" width="356.98" height="483.84"/></clipPath></defs><g id="Layer_2" data-name="Layer 2"><g id="BACKGROUND"><path class="cls-2" d="M52.09,113.66c92.89-124.49,249.24-98,260.8-10.2,6.84,51.94,25.46,88.88,57.71,107.24,80.07,45.62,153.9,144.17-103.16,203.56C-39.15,485.09-15.76,204.6,52.09,113.66Z" transform="translate(0 -11.02)"/><g class="cls-3"><path class="cls-4" d="M323.51,347.35c-3-1.22,35-46.61,49.64-45.33s12.91,17.06,5.82,26.89S327.92,349.14,323.51,347.35Z" transform="translate(0 -11.02)"/><path class="cls-5" d="M344.85,320.59c-12.35,12.23-23,26.09-21.34,26.76,3.15,1.28,26.56-3.69,42.22-10.22C358.88,331.46,351.89,326,344.85,320.59Z" transform="translate(0 -11.02)"/><path d="M309.38,364.36l1.57-2.25,1.8-2.59,1.11-1.59,1.38-1.67,3.1-3.74a23.28,23.28,0,0,1,1.78-2l1.92-2c1.29-1.36,2.61-2.79,4.1-4.09l4.42-4,4.68-3.73c1.51-1.27,3.14-2.34,4.66-3.44l2.26-1.6a26.48,26.48,0,0,1,2.2-1.48l4.09-2.6c.64-.4,1.24-.8,1.83-1.15l1.7-.94,2.76-1.54,2.4-1.35a.18.18,0,0,1,.23.07.17.17,0,0,1-.06.23h0l-2.37,1.39-2.71,1.6-1.67,1L348.74,328l-4.07,2.62c-.73.46-1.45,1-2.17,1.5l-2.24,1.61c-1.51,1.11-3.12,2.18-4.61,3.46L331,341l-4.42,4c-1.5,1.28-2.82,2.69-4.12,4l-1.92,2a23,23,0,0,0-1.78,1.94l-3.12,3.68c-.48.58-.94,1.12-1.37,1.65l-1.15,1.56-1.87,2.55-1.62,2.22a.19.19,0,0,1-.24,0A.17.17,0,0,1,309.38,364.36Z" transform="translate(0 -11.02)"/><path d="M343,342l1.66-.48c1.05-.33,2.58-.7,4.35-1.33l2.86-1c1-.32,2.06-.8,3.16-1.2s2.23-.84,3.34-1.37l3.4-1.53,3.34-1.67c1.11-.53,2.15-1.15,3.18-1.73s2-1.1,2.92-1.7l2.56-1.62c1.6-1,2.84-1.94,3.75-2.54l1.42-1h0a.19.19,0,0,1,.24,0,.17.17,0,0,1,0,.23l-1.38,1-1.59,1.19c-.61.46-1.31,1-2.11,1.47l-2.55,1.67c-.89.61-1.91,1.14-2.92,1.75s-2.06,1.23-3.17,1.77l-3.34,1.73-3.44,1.52c-1.12.52-2.27.93-3.37,1.36s-2.16.85-3.2,1.16l-2.91.92c-.9.3-1.73.52-2.47.7l-1.93.48-1.67.42a.16.16,0,0,1-.2-.12A.17.17,0,0,1,343,342Z" transform="translate(0 -11.02)"/><path class="cls-6" d="M352.5,316.77s.87-1,2.25-2.34l1.13-1.09c.4-.39.88-.75,1.36-1.14,1-.77,2-1.58,3.05-2.38s2.21-1.42,3.26-2.05c.52-.32,1-.65,1.52-.9l1.43-.7c1.77-.85,3-1.36,3-1.36a.41.41,0,0,1,.53.22.42.42,0,0,1-.14.49l0,0s-1.06.75-2.69,1.78l-1.32.83c-.47.27-.92.65-1.42,1-1,.68-2.06,1.39-3.13,2.1s-2,1.53-3,2.21c-.48.36-1,.67-1.4,1l-1.23,1c-1.54,1.2-2.61,1.95-2.61,1.95a.41.41,0,0,1-.57-.1A.41.41,0,0,1,352.5,316.77Z" transform="translate(0 -11.02)"/><path class="cls-4" d="M306,373.31c-2.15,1.9-18.36-55.76-16.43-63.15s17.75-25.92,31.75-6.62S317.7,363,306,373.31Z" transform="translate(0 -11.02)"/><path class="cls-5" d="M306,373.31c5.53-4.86,12.35-16.33,16.56-29.12-10.4-6.74-20.7-13.49-31.31-19.65C295.19,343.89,304.38,374.71,306,373.31Z" transform="translate(0 -11.02)"/><path d="M299.9,410.59s.25-1.38.67-3.81,1.08-5.88,1.73-10l1.07-6.72c.4-2.38.68-4.91,1.05-7.52s.75-5.31,1-8.07.59-5.54.89-8.34.44-5.6.66-8.36.34-5.47.46-8.11c.06-1.31.12-2.61.18-3.87s.11-2.51.1-3.72c0-2.41,0-4.7,0-6.8,0-1.06,0-2.07,0-3s-.06-1.87-.08-2.73c-.06-1.71-.11-3.2-.14-4.43-.08-2.46-.13-3.86-.13-3.86h0a.17.17,0,0,1,.17-.17.17.17,0,0,1,.17.16s.06,1.4.18,3.86c.06,1.23.13,2.73.22,4.44,0,.86.08,1.77.13,2.73s0,2,0,3V342c0,1.21,0,2.45-.08,3.72s-.1,2.57-.15,3.89c-.11,2.64-.17,5.37-.42,8.13s-.41,5.57-.62,8.38-.62,5.6-.93,8.35-.69,5.46-1,8.07-.68,5.15-1.1,7.53-.77,4.64-1.11,6.73-.69,4-1,5.67-.61,3.15-.85,4.36c-.46,2.41-.73,3.79-.73,3.79a.18.18,0,0,1-.19.14A.19.19,0,0,1,299.9,410.59Z" transform="translate(0 -11.02)"/><path d="M315.69,358.83l.57-1.68c.34-1.07.92-2.59,1.44-4.44.28-.92.57-1.92.88-3s.57-2.2.88-3.36.63-2.37.86-3.62l.78-3.75c.22-1.27.44-2.54.65-3.78s.38-2.49.53-3.68.32-2.35.4-3.45.17-2.15.24-3.11.15-1.84.17-2.63.07-1.46.09-2c.05-1.12.08-1.76.08-1.76h0a.16.16,0,0,1,.18-.16.17.17,0,0,1,.16.17s0,.64,0,1.77c0,.57,0,1.25,0,2,0,.4,0,.81,0,1.26s-.06.9-.09,1.38c-.06,1-.13,2-.21,3.13s-.24,2.27-.36,3.47-.26,2.45-.48,3.71-.41,2.53-.61,3.81-.54,2.53-.81,3.77-.59,2.46-.89,3.63-.57,2.31-.93,3.37-.65,2.06-.95,3-.58,1.76-.87,2.49-.52,1.38-.72,1.9c-.39,1.06-.62,1.66-.62,1.66a.17.17,0,0,1-.22.1A.17.17,0,0,1,315.69,358.83Z" transform="translate(0 -11.02)"/><path class="cls-6" d="M290.46,319.76s0-.44,0-1.2a13.3,13.3,0,0,1,0-1.4,16,16,0,0,1,.14-1.84,21.42,21.42,0,0,1,.37-2.14c.08-.38.17-.77.26-1.17s.26-.78.39-1.19a11.8,11.8,0,0,1,.46-1.2c.18-.4.32-.83.54-1.22s.43-.79.65-1.19.49-.76.74-1.15a11.94,11.94,0,0,1,.82-1.09,10.83,10.83,0,0,1,.89-1c.31-.33.62-.65.94-.95l1-.84a18.32,18.32,0,0,1,2-1.38,15.56,15.56,0,0,1,2-1c.31-.14.6-.28.89-.38l.84-.26a9.24,9.24,0,0,1,1.37-.37l1.2-.25a.42.42,0,0,1,.48.32.4.4,0,0,1-.26.46h0l-1.11.4a9.81,9.81,0,0,0-1.25.5,16.68,16.68,0,0,0-1.56.75,15.87,15.87,0,0,0-1.75,1,8.76,8.76,0,0,0-.89.65c-.29.25-.63.44-.9.72l-.89.8c-.28.28-.55.59-.83.89a9.13,9.13,0,0,0-.8,1,10.78,10.78,0,0,0-.74,1c-.22.35-.47.69-.69,1l-.6,1.09a23.93,23.93,0,0,0-1,2.21c-.13.37-.27.73-.4,1.09s-.22.72-.33,1.07a19.81,19.81,0,0,0-.49,2c-.15.63-.2,1.2-.3,1.71a11.29,11.29,0,0,0-.17,1.35c-.09.77-.13,1.2-.13,1.2a.4.4,0,0,1-.45.36A.39.39,0,0,1,290.46,319.76Z" transform="translate(0 -11.02)"/><path class="cls-4" d="M92.2,350.53c3-.22-23.82-54-30.44-58S29.83,286.84,32,311.19,75.76,351.69,92.2,350.53Z" transform="translate(0 -11.02)"/><path class="cls-5" d="M92.2,350.53c-7.74.54-21-2.75-33.19-8.92,3.62-12.57,7.14-25.07,11.32-37.38C80.49,321.21,94.41,350.37,92.2,350.53Z" transform="translate(0 -11.02)"/><path d="M122.46,373.39l-3.19-2.21-3.66-2.53c-1.41-1-3-2.08-4.7-3.36l-5.5-4.05c-2-1.41-4-3-6-4.65s-4.26-3.27-6.38-5.07l-6.49-5.37-6.27-5.63c-2.1-1.82-4-3.76-5.93-5.6l-2.8-2.71c-.92-.88-1.81-1.75-2.63-2.64l-4.71-5c-.72-.77-1.43-1.49-2.08-2.21l-1.78-2.08-2.89-3.39L54.88,314a.17.17,0,0,1,0-.25.18.18,0,0,1,.25,0h0l2.57,2.91L60.66,320c.56.65,1.17,1.33,1.81,2l2.09,2.19,4.72,4.93c.83.88,1.72,1.75,2.64,2.62l2.81,2.69c1.91,1.82,3.85,3.74,6,5.55L87,345.59,93.42,351c2.1,1.81,4.27,3.46,6.34,5.11s4.06,3.25,6,4.67l5.47,4.08c3.38,2.54,6.28,4.55,8.27,6l3.15,2.26a.17.17,0,0,1,0,.24A.17.17,0,0,1,122.46,373.39Z" transform="translate(0 -11.02)"/><path d="M74.35,347.51l-1.63-.73-1.86-.85c-.73-.31-1.54-.69-2.4-1.16l-2.79-1.46c-1-.5-2-1.14-3.05-1.75s-2.15-1.24-3.2-2l-3.24-2.15-3.12-2.31c-1.05-.74-2-1.55-3-2.32s-1.87-1.51-2.69-2.27l-2.32-2.13-1-1-.88-.91-1.43-1.47-1.24-1.28a.18.18,0,0,1,0-.25.18.18,0,0,1,.24,0h0l1.29,1.23,1.47,1.41.9.87,1,.92,2.35,2.07c.83.74,1.78,1.44,2.71,2.21s1.91,1.56,3,2.3l3.11,2.27L59.81,339c1,.73,2.13,1.34,3.16,2s2,1.27,3,1.78l2.74,1.51c1.68,1,3.18,1.62,4.18,2.14l1.6.8a.17.17,0,0,1,.07.23A.16.16,0,0,1,74.35,347.51Z" transform="translate(0 -11.02)"/><path class="cls-6" d="M67,300.82l-1-.8a11.41,11.41,0,0,0-1.1-.88c-.44-.31-.89-.7-1.46-1.05a18.83,18.83,0,0,0-1.81-1.1c-.65-.38-1.38-.68-2.12-1-.37-.18-.77-.29-1.16-.44a9.35,9.35,0,0,0-1.2-.39,19.06,19.06,0,0,0-2.51-.58,20.26,20.26,0,0,0-2.57-.22,23,23,0,0,0-2.5.07c-.8.14-1.59.17-2.32.37l-1.06.23-1,.3c-.64.18-1.2.4-1.7.59a11.48,11.48,0,0,0-1.29.54l-1.12.51h0a.42.42,0,0,1-.56-.21.42.42,0,0,1,.16-.53l1.07-.69a10.71,10.71,0,0,1,1.27-.71,12.19,12.19,0,0,1,1.73-.8l1-.4,1.12-.33a18.21,18.21,0,0,1,2.49-.54,22,22,0,0,1,2.72-.17,22.43,22.43,0,0,1,2.82.21,22.34,22.34,0,0,1,2.74.66,8,8,0,0,1,1.3.46c.42.18.85.32,1.24.52a17.21,17.21,0,0,1,2.21,1.25A17.62,17.62,0,0,1,64.34,297a14.56,14.56,0,0,1,1.44,1.26,12,12,0,0,1,1,1l.82.94a.41.41,0,0,1,0,.59A.42.42,0,0,1,67,300.82Z" transform="translate(0 -11.02)"/><path class="cls-4" d="M314.68,476c-.2,2.81,32.54-18.92,53.57-23.57s61-17.57,59.06-32.89-15.76-37.42-40.25-31.13S317.59,437.23,314.68,476Z" transform="translate(0 -11.02)"/><path class="cls-5" d="M344.74,417.88c-15.55,16.61-28.54,37.86-30.06,58.07-.2,2.81,32.54-18.92,53.57-23.57a226.26,226.26,0,0,0,22.12-6.18C375.41,436.43,360.35,426.62,344.74,417.88Z" transform="translate(0 -11.02)"/><path d="M300.72,514.3s.52-2.15,1.42-5.9c.22-.94.47-2,.74-3.12s.7-2.32,1.09-3.62c.81-2.57,1.58-5.52,2.84-8.6.59-1.55,1.21-3.16,1.84-4.84s1.48-3.32,2.26-5.06c1.47-3.51,3.48-7,5.43-10.66,1-1.8,2.21-3.55,3.33-5.37.57-.9,1.13-1.83,1.73-2.72s1.27-1.75,1.92-2.63l1.93-2.66,1-1.33,1.06-1.27,4.27-5.08c3.07-3.19,6.07-6.46,9.38-9.3,1.62-1.47,3.2-2.95,4.9-4.23l5-3.94,5-3.5c.83-.57,1.61-1.17,2.45-1.68l2.46-1.52,4.71-2.9L370,421.9c2.88-1.65,5.66-2.91,8.09-4.06l3.42-1.62,3-1.23,5.61-2.33a.16.16,0,0,1,.22.09.17.17,0,0,1-.09.22h0l-5.58,2.39-2.94,1.25-3.38,1.65c-2.42,1.18-5.17,2.46-8,4.11l-4.53,2.48L361,427.76l-2.44,1.52c-.84.51-1.61,1.11-2.43,1.68-1.63,1.14-3.29,2.32-5,3.51l-4.92,3.93c-1.69,1.29-3.26,2.76-4.86,4.23-3.29,2.84-6.26,6.1-9.3,9.28-1.42,1.69-2.85,3.37-4.26,5l-1.06,1.26-1,1.33-1.93,2.63c-.65.87-1.28,1.74-1.92,2.61s-1.16,1.8-1.73,2.69c-1.12,1.81-2.31,3.55-3.33,5.34-2,3.64-4,7.1-5.45,10.59-.77,1.73-1.6,3.38-2.27,5s-1.25,3.28-1.84,4.82c-1.26,3.06-2.06,6-2.9,8.54-.4,1.29-.8,2.48-1.12,3.6s-.54,2.16-.78,3.1c-.94,3.75-1.47,5.89-1.47,5.89a.19.19,0,0,1-.21.13A.18.18,0,0,1,300.72,514.3Z" transform="translate(0 -11.02)"/><path d="M359.12,453.8l8.56-3.08,4.16-1.46c1.49-.49,3-1.15,4.59-1.75l9.94-3.91,9.82-4.21c1.56-.69,3.09-1.29,4.5-2l4-1.92,8.21-3.9h0a.17.17,0,1,1,.14.3l-8.13,4.1-3.95,2c-1.4.7-2.94,1.31-4.49,2l-9.8,4.3-10,3.83c-1.6.59-3.12,1.24-4.61,1.72l-4.17,1.42-8.63,2.89A.18.18,0,0,1,359,454,.18.18,0,0,1,359.12,453.8Z" transform="translate(0 -11.02)"/><path class="cls-6" d="M358.83,407.75l1.33-1.23,1.54-1.39.94-.86c.35-.29.75-.55,1.15-.85l2.63-1.91.71-.51.77-.45,1.59-.92a32.35,32.35,0,0,1,3.41-1.8l3.63-1.63,3.78-1.24a31.14,31.14,0,0,1,3.73-1l1.8-.39a13.16,13.16,0,0,1,1.74-.29l3.2-.36c.5-.05,1-.12,1.42-.14h5.21a.41.41,0,0,1,0,.81h0l-1.79.15-2.05.16-1.26.1-1.39.21-3.1.5a11.34,11.34,0,0,0-1.67.36l-1.74.43a27.85,27.85,0,0,0-3.61,1l-3.65,1.26-3.54,1.54a29,29,0,0,0-3.34,1.69l-1.57.86-.77.4-.7.46-2.62,1.71c-.4.27-.8.51-1.16.77l-1,.78-1.65,1.27-1.44,1.1a.41.41,0,0,1-.52-.63Z" transform="translate(0 -11.02)"/><path class="cls-4" d="M60.13,433.14c-25.27-1.07-34.23,23.42-32.91,38.8s43.05,19.73,64.59,19.92,58.08,14.65,57.29,11.95C138.23,466.54,85.4,434.22,60.13,433.14Z" transform="translate(0 -11.02)"/><path class="cls-5" d="M107.66,453.24c18.65,13,35.76,31.11,41.44,50.57.79,2.7-35.75-11.76-57.29-11.95a226.35,226.35,0,0,1-22.92-1.45C81.5,477.75,94.2,465,107.66,453.24Z" transform="translate(0 -11.02)"/><path d="M170.42,538.57l-2.67-5.45-1.41-2.88c-.54-1-1.18-2.11-1.84-3.28-1.34-2.33-2.73-5-4.6-7.76l-2.81-4.33c-1-1.48-2.14-2.92-3.26-4.45-2.17-3.11-4.86-6.07-7.53-9.23-1.37-1.54-2.89-3-4.36-4.53-.75-.75-1.48-1.53-2.25-2.28l-2.42-2.15-2.44-2.18L133.61,489l-1.3-1-5.21-4.05c-3.64-2.48-7.22-5.06-11-7.15-1.87-1.1-3.71-2.22-5.64-3.13l-5.62-2.83-5.59-2.4c-.92-.38-1.81-.81-2.73-1.14l-2.7-1-5.2-1.87-4.94-1.49c-3.15-1-6.11-1.7-8.72-2.35l-3.65-.91L68.15,459l-6-1.17h0a.16.16,0,0,1-.13-.19.16.16,0,0,1,.19-.13l6,1.11,3.15.59,3.67.87c2.63.63,5.6,1.28,8.76,2.3l5,1.47L94,465.73l2.72,1c.93.32,1.82.75,2.74,1.13l5.63,2.39,5.66,2.82c1.93.91,3.79,2,5.67,3.13,3.83,2.09,7.44,4.67,11.11,7.15l5.23,4.08,1.3,1,1.22,1.1,2.45,2.19,2.42,2.18c.77.75,1.51,1.54,2.26,2.3,1.47,1.55,3,3,4.36,4.57,2.67,3.18,5.36,6.16,7.53,9.3,1.12,1.54,2.27,3,3.26,4.48s1.9,3,2.8,4.36c1.87,2.74,3.25,5.47,4.57,7.82.65,1.18,1.28,2.28,1.81,3.31l1.38,2.89,2.61,5.49a.17.17,0,0,1-.08.22A.16.16,0,0,1,170.42,538.57Z" transform="translate(0 -11.02)"/><path d="M101,491.69l-9-1-4.38-.53c-1.55-.16-3.18-.48-4.87-.73l-10.57-1.67-10.48-2.17c-1.67-.37-3.3-.65-4.81-1.05l-4.28-1.09-8.8-2.32a.18.18,0,0,1-.12-.21.16.16,0,0,1,.2-.12h0l8.84,2.13L57,484c1.51.39,3.14.65,4.81,1L72.27,487l10.53,1.75c1.68.26,3.3.59,4.85.77l4.38.57,9,1.23a.16.16,0,0,1,.14.19A.16.16,0,0,1,101,491.69Z" transform="translate(0 -11.02)"/><path class="cls-6" d="M91.39,447l-1.64-.77-1.87-.9-1.15-.56c-.41-.18-.85-.33-1.3-.51l-2.91-1.13-.79-.3-.84-.24-1.71-.51a31.3,31.3,0,0,0-3.61-1l-3.79-.77L68,439.84a28.12,28.12,0,0,0-3.74-.23l-1.79-.06a10.85,10.85,0,0,0-1.71,0l-3.14.15-1.4.08-1.25.17-2,.27-1.78.21h0a.4.4,0,0,1-.45-.35.42.42,0,0,1,.31-.45l1.78-.39,2-.44,1.27-.26c.45-.08.93-.1,1.42-.16l3.21-.31a11.35,11.35,0,0,1,1.76-.08h1.84a31.56,31.56,0,0,1,3.85.18l4,.43,3.89.85a30.47,30.47,0,0,1,3.7,1l1.75.56.85.29.8.35L86,443c.46.21.91.38,1.31.6l1.1.64,1.79,1.05,1.56.92a.42.42,0,0,1,.14.56A.41.41,0,0,1,91.39,447Z" transform="translate(0 -11.02)"/></g><path class="cls-7" d="M253.88,118.67c-8.23-10.53-1.77-29.18,13-30.77s20.25,14.47,15.9,23.91S263.33,130.76,253.88,118.67Z" transform="translate(0 -11.02)"/><path class="cls-7" d="M48.39,193.67c-8.23-10.53-1.77-29.18,13-30.77s20.25,14.47,15.9,23.9S57.84,205.76,48.39,193.67Z" transform="translate(0 -11.02)"/><path class="cls-7" d="M280.11,150.45c-3.94-5-.85-14,6.21-14.72s9.68,6.92,7.6,11.43S284.63,156.23,280.11,150.45Z" transform="translate(0 -11.02)"/><path class="cls-7" d="M73.05,136.49c-3.93-5-.84-14,6.21-14.71s9.68,6.92,7.6,11.43S77.57,142.28,73.05,136.49Z" transform="translate(0 -11.02)"/><path class="cls-7" d="M405.62,295.59c-6.83-8.75-1.47-24.24,10.79-25.57s16.81,12,13.21,19.86S413.48,305.63,405.62,295.59Z" transform="translate(0 -11.02)"/><path class="cls-7" d="M398.33,329.7c-3.93-5-.85-13.95,6.21-14.72s9.68,6.92,7.6,11.44S402.85,335.48,398.33,329.7Z" transform="translate(0 -11.02)"/><path class="cls-7" d="M71.55,370.48c-3.93-5-.84-14,6.21-14.71s9.68,6.92,7.61,11.43S76.07,376.27,71.55,370.48Z" transform="translate(0 -11.02)"/><path class="cls-8" d="M334.35,128.86c.61-.85,41.19,10.87,41.47,12.06s-2.4,12.37-3.59,12.8-41-10.6-41.58-11.64S333.32,130.31,334.35,128.86Z" transform="translate(0 -11.02)"/><path class="cls-8" d="M339.82,160.68c-.77-1.58,10.6-42.86,12.12-43.23s14.74,2.78,15.16,4.25S356.51,163.84,355,164.93,340.66,162.42,339.82,160.68Z" transform="translate(0 -11.02)"/><path d="M362.1,133.81s.14-.66.4-1.64.63-2.27,1-3.56.83-2.56,1.18-3.51.6-1.58.6-1.58a.17.17,0,0,1,.22-.09.16.16,0,0,1,.1.19s-.14.66-.4,1.64-.63,2.27-1,3.56-.83,2.56-1.18,3.51-.6,1.58-.6,1.58a.17.17,0,0,1-.22.09A.17.17,0,0,1,362.1,133.81Z" transform="translate(0 -11.02)"/><path d="M360.54,149.6s.66.14,1.64.4,2.27.63,3.56,1,2.56.83,3.51,1.18,1.58.6,1.58.6a.17.17,0,0,1,.09.22.16.16,0,0,1-.19.1s-.66-.14-1.64-.4-2.27-.63-3.56-1-2.56-.83-3.51-1.18-1.58-.6-1.58-.6a.17.17,0,0,1-.09-.22A.17.17,0,0,1,360.54,149.6Z" transform="translate(0 -11.02)"/><path d="M354.54,163.14s.11-.72.32-1.78.54-2.49.88-3.9.72-2.82,1-3.86.54-1.74.54-1.74a.17.17,0,0,1,.32.08s-.11.72-.33,1.79-.53,2.48-.87,3.9-.71,2.81-1,3.86-.54,1.73-.54,1.73a.17.17,0,0,1-.32-.08Z" transform="translate(0 -11.02)"/><path class="cls-8" d="M293.26,100.49c.14-.77,31.3-6,31.87-5.3s2.39,9.12,1.73,9.79-31.09,6.13-31.82,5.62S293,101.8,293.26,100.49Z" transform="translate(0 -11.02)"/><path class="cls-8" d="M307.25,120.18c-1-.82-6.73-32.34-5.82-33.08s10.84-2.9,11.6-2,6.5,31.86,5.83,33.08S308.38,121.07,307.25,120.18Z" transform="translate(0 -11.02)"/><path d="M313.58,94.84s-.12-.49-.26-1.24-.31-1.73-.47-2.73-.27-2-.34-2.75-.1-1.25-.1-1.25a.12.12,0,0,1,.11-.14.12.12,0,0,1,.13.1s.12.49.26,1.23.31,1.74.47,2.74.27,2,.34,2.75.11,1.25.11,1.25a.14.14,0,0,1-.12.14A.13.13,0,0,1,313.58,94.84Z" transform="translate(0 -11.02)"/><path d="M317.64,106l1.24-.26c.74-.15,1.73-.31,2.73-.46s2-.27,2.75-.34l1.26-.11a.14.14,0,0,1,.13.12.13.13,0,0,1-.1.13l-1.23.26c-.75.15-1.74.31-2.74.46s-2,.28-2.75.35l-1.25.1a.13.13,0,0,1-.14-.11A.14.14,0,0,1,317.64,106Z" transform="translate(0 -11.02)"/><path d="M318,117.07s-.16-.52-.36-1.31-.44-1.85-.68-2.91-.42-2.13-.55-2.94-.21-1.34-.21-1.34a.13.13,0,0,1,.11-.15.16.16,0,0,1,.14.09s.15.53.36,1.32.44,1.85.67,2.91.43,2.13.56,2.94.2,1.34.2,1.34a.12.12,0,0,1-.11.14A.11.11,0,0,1,318,117.07Z" transform="translate(0 -11.02)"/><path class="cls-8" d="M360.59,67.61c.43-.45,23.42,9.49,23.49,10.21s-2.34,7.09-3.07,7.26-23.32-9.32-23.59-10S359.88,68.38,360.59,67.61Z" transform="translate(0 -11.02)"/><path class="cls-8" d="M361.42,86.74c-.33-1,9.45-24.42,10.38-24.52s8.46,2.74,8.6,3.64S371,89.85,370,90.38,361.79,87.82,361.42,86.74Z" transform="translate(0 -11.02)"/><path d="M376.55,72.61s.13-.38.36-.94.54-1.29.87-2,.68-1.44,1-2l.47-.88a.1.1,0,0,1,.14,0,.09.09,0,0,1,0,.12s-.13.37-.35.93-.55,1.29-.87,2-.68,1.45-1,2l-.47.88a.11.11,0,0,1-.14,0A.1.1,0,0,1,376.55,72.61Z" transform="translate(0 -11.02)"/><path d="M374.45,81.78s.37.13.93.36,1.29.54,2,.87,1.44.68,2,.95l.89.47a.11.11,0,0,1-.09.19l-.93-.36c-.56-.22-1.29-.55-2-.87s-1.44-.68-2-1-.88-.47-.88-.47a.11.11,0,0,1,0-.14A.11.11,0,0,1,374.45,81.78Z" transform="translate(0 -11.02)"/><path d="M369.89,89.29s.14-.41.33-1,.5-1.43.81-2.23.63-1.6.89-2.2l.45-1a.1.1,0,0,1,.13,0,.09.09,0,0,1,.05.12l-.33,1c-.2.61-.5,1.42-.8,2.23s-.63,1.6-.89,2.19l-.45,1a.1.1,0,0,1-.13,0A.12.12,0,0,1,369.89,89.29Z" transform="translate(0 -11.02)"/><path class="cls-8" d="M28.26,108.4c-.31-.72,23.19-21.85,24.06-21.56s6.9,6.42,6.7,7.34S36.07,116,35.18,116,28.77,109.63,28.26,108.4Z" transform="translate(0 -11.02)"/><path class="cls-8" d="M50.62,117.52c-1.31-.14-23-23.69-22.65-24.8s7.59-8.26,8.7-8,22.56,23.4,22.65,24.8S52.06,117.67,50.62,117.52Z" transform="translate(0 -11.02)"/><path d="M42.38,92.74l-.89-.9c-.52-.55-1.19-1.3-1.85-2.06s-1.3-1.54-1.77-2.14-.76-1-.76-1a.13.13,0,0,1,0-.18.13.13,0,0,1,.16,0s.36.36.88.91,1.19,1.3,1.86,2.05,1.3,1.54,1.76,2.14.77,1,.77,1a.14.14,0,0,1,0,.18A.12.12,0,0,1,42.38,92.74Z" transform="translate(0 -11.02)"/><path d="M51.79,100s.35-.36.9-.89,1.3-1.19,2.06-1.85,1.54-1.3,2.13-1.77l1-.76a.12.12,0,0,1,.17,0,.12.12,0,0,1,0,.16s-.35.36-.9.88-1.3,1.2-2.06,1.86S53.55,98.94,53,99.4s-1,.77-1,.77a.13.13,0,0,1-.18,0A.12.12,0,0,1,51.79,100Z" transform="translate(0 -11.02)"/><path d="M58,109.15s-.41-.36-1-.92-1.36-1.32-2.13-2.09-1.5-1.58-2-2.18l-.9-1a.14.14,0,0,1,0-.18.12.12,0,0,1,.16,0s.41.36,1,.92,1.37,1.32,2.13,2.1,1.5,1.57,2,2.18.89,1,.89,1a.13.13,0,0,1,0,.18A.12.12,0,0,1,58,109.15Z" transform="translate(0 -11.02)"/><path class="cls-8" d="M67.46,44.55c.11-.62,24.85-4.55,25.3-4s1.83,7.24,1.3,7.77S69.37,53,68.8,52.57,67.27,45.58,67.46,44.55Z" transform="translate(0 -11.02)"/><path class="cls-8" d="M78.42,60.25C77.6,59.59,73.3,34.57,74,34s8.62-2.23,9.22-1.55,4.93,25.3,4.39,26.27S79.3,61,78.42,60.25Z" transform="translate(0 -11.02)"/><path d="M83.6,40.21l-.2-1c-.11-.59-.23-1.38-.34-2.17s-.2-1.59-.26-2.18-.07-1-.07-1a.1.1,0,0,1,.2,0s.08.39.19,1,.24,1.38.35,2.17.2,1.58.26,2.18.07,1,.07,1a.12.12,0,0,1-.09.11A.12.12,0,0,1,83.6,40.21Z" transform="translate(0 -11.02)"/><path d="M86.75,49.08s.39-.09,1-.2,1.38-.23,2.17-.35,1.58-.2,2.18-.25l1-.08a.1.1,0,0,1,.1.1.1.1,0,0,1-.08.1s-.39.09-1,.2-1.38.23-2.17.35-1.58.2-2.18.25l-1,.07a.09.09,0,0,1-.1-.09A.1.1,0,0,1,86.75,49.08Z" transform="translate(0 -11.02)"/><path d="M86.94,57.86s-.11-.42-.28-1-.34-1.47-.51-2.32-.33-1.69-.42-2.33-.16-1.06-.16-1.06a.11.11,0,0,1,.09-.12.11.11,0,0,1,.11.08s.11.41.27,1,.34,1.47.52,2.31.32,1.69.42,2.33l.15,1.07a.09.09,0,0,1-.08.11A.09.09,0,0,1,86.94,57.86Z" transform="translate(0 -11.02)"/><g class="cls-9"><path class="cls-10" d="M302.23,290.87c-.59-1.54-1.28-3-2-4.51s-1.35-2.79-2.15-4.1a11.79,11.79,0,0,0-2-2.46,10.32,10.32,0,0,0,.18-1.09,37.53,37.53,0,0,0,.16-4.86,39.82,39.82,0,0,0-1-9.55c-1.58-6.27-5.9-11.93-12.33-13.7a12.65,12.65,0,0,0-1.51-.32,28.11,28.11,0,0,0-.54-6.47,23.59,23.59,0,0,0-13.7-17.06,21.08,21.08,0,0,0-5.28-1.49,13.17,13.17,0,0,0-5.66.19,6.33,6.33,0,0,0-3.84,3.7,27.08,27.08,0,0,0-1.89,6.2c-.19,1.09-.33,2.18-.44,3.27a.48.48,0,0,0,.43.5c-.2.41-.38.83-.56,1.25a.37.37,0,0,0,.09.48.38.38,0,0,0,.31.06c-.24.37-.5.73-.77,1.08,0-1.41,0-2.82.15-4.22.17-2.18.36-4.37.6-6.54q.18-1.57.39-3.15c.05-.37-.59-.46-.65-.09a93.43,93.43,0,0,0-1.58,13.73,18,18,0,0,0,.95,6.39,17.61,17.61,0,0,0,2.83,4.94,33.8,33.8,0,0,0,9,7.67,18.28,18.28,0,0,0,9.23,2.79,16.1,16.1,0,0,0,1.14,4.59,41.66,41.66,0,0,0,5.37,9,16.88,16.88,0,0,0,3.5,3.61,13,13,0,0,0,4.56,2.06c.77.19,1.55.33,2.34.45a14.18,14.18,0,0,0-.26,6.15c1,5.69,4.67,10.35,7.12,15.44a19,19,0,0,1,2.22,9.61c0,.55.58.74,1,.57a8.92,8.92,0,0,0,4.51-5.53,34,34,0,0,0,1.58-8.67A22.54,22.54,0,0,0,302.23,290.87Z" transform="translate(0 -11.02)"/><path d="M274,259.87c-6.11-.5-12.6-1.5-17.88-4.71,3,.81,5.87,1.91,8.84,2.79a86.5,86.5,0,0,0,9,1.92Z" transform="translate(0 -11.02)"/><path d="M293,278c1.73-9.68-1.22-17-6.87-24.76a0,0,0,1,1,.05,0A25.83,25.83,0,0,1,293,278Z" transform="translate(0 -11.02)"/><path d="M296.12,300.28c-3.21-3.11-6.75-7.45-5.77-12.24a0,0,0,0,1,.07,0,21,21,0,0,0,1.82,6.54,32.74,32.74,0,0,0,3.88,5.69Z" transform="translate(0 -11.02)"/><path class="cls-10" d="M236.52,121.41a19.81,19.81,0,0,0-4.28-7.51,13.09,13.09,0,0,0-6.65-3.84,33.28,33.28,0,0,0-.66-10.54c-1.65-6.26-6.43-11.78-13-12.94a13.72,13.72,0,0,0-9.41,1.56c-2.5,1.5-4.63,4.33-4.54,7.35,0,.22,0,.44.07.65l-.07.09a8.66,8.66,0,0,0-.86,1.51,15.86,15.86,0,0,1,.1-6.1c.09-.42-.54-.6-.64-.18a17.22,17.22,0,0,0,0,8l0,.15a.46.46,0,0,0,.16.42,20.22,20.22,0,0,0,5.3,9.16,27.23,27.23,0,0,0,15.32,7.23,18.79,18.79,0,0,0-.41,2.55c-.13,1.37-.13,2.75-.14,4.13a34.65,34.65,0,0,0,.21,4.44,13,13,0,0,0,3.36,7.64,18.19,18.19,0,0,0,7.22,4.32c2.75.93,5.63.74,7.81-1.32a10.22,10.22,0,0,0,2.87-7.54A29.86,29.86,0,0,0,236.52,121.41Z" transform="translate(0 -11.02)"/><path d="M227.38,114.19c6.71,5.21,10.2,15.77,8,24a0,0,0,0,1-.07,0c.83-8.54-1.46-18.25-7.92-24Z" transform="translate(0 -11.02)"/><path class="cls-11" d="M133.46,442s65.42-3,82.85-4.77,61.42-9.07,61.42-9.07L240.59,233.86l-96.84-2.56Z" transform="translate(0 -11.02)"/><path d="M196,428.4l5.6-.68c3.37-.38,7.86-.86,12.35-1.32l12.31-1.53,4.06-.46,1.55-.17h0a.17.17,0,0,1,.19.15.17.17,0,0,1-.15.18l-1.53.23-4.05.61L214,427.11c-4.5.44-9,.87-12.36,1.16l-5.63.46a.17.17,0,0,1-.18-.15A.16.16,0,0,1,196,428.4Z" transform="translate(0 -11.02)"/><path class="cls-12" d="M324.43,606.19S331,621.93,337,621.57c7.9-.49,10.24-5.76,15.5-10.56s22-19.82,26.14-24.6-.14-16.66-8.4-15.91-7.25,8.88-9.56,13.36c-1.82,3.54-19,6.38-22.78,12.68-1,1.69-5.7,3.43-5.7,3.43Z" transform="translate(0 -11.02)"/><path class="cls-12" d="M180.82,615.68S169.42,628,164.67,627s-14.59,7.88-1.58,9.55,38.91,1.24,50,.81,7.77-11.53-.16-12.5-17.17-7.13-18.52-12S180.82,615.68,180.82,615.68Z" transform="translate(0 -11.02)"/><path class="cls-13" d="M129,332.37c10.39-33.1,38.59-77.57,38.59-77.57l54.86.45S246,278.79,261.18,321s57.19,211.41,60.72,227.06,19.82,40.35,20.11,44.76-17,16.37-19.94,14.43-44.77-93.31-56.43-123-55.11-123.75-58.16-124.18-9.69-.6-11.41,4-10.33,96.62-10.86,127.67,1.71,71,2.17,78.9,12.51,42.54,10.23,44.77-22.43,5.95-24.13,2.76S107.58,400.51,129,332.37Z" transform="translate(0 -11.02)"/><path class="cls-8" d="M278.36,378.64c-6.85-24.9-13-46-17.18-57.62-15.15-42.23-38.74-65.77-38.74-65.77l-54.86-.45s-28.2,44.47-38.59,77.57c-3.1,9.85-4.39,22.76-4.36,37.63,21.92,14.73,43.65,28.32,66.65,36.22,2.08-22.24,4.06-40.1,4.79-42.08,1.72-4.63,8.35-4.46,11.41-4,1.52.22,13.06,23.66,25.71,50.81C250.26,406.67,264.64,393.82,278.36,378.64Z" transform="translate(0 -11.02)"/><path d="M185.71,364.6l1.45-.52,1.66-.61c.63-.24,1.36-.49,2.17-.72l2.6-.79c.92-.3,1.91-.52,2.93-.79,2-.55,4.22-1,6.4-1.53l17.53-3.55a.17.17,0,0,1,.2.13.17.17,0,0,1-.12.2l-1.49.37c-1,.22-2.31.6-3.95.95l-12,2.59c-2.18.5-4.37.95-6.39,1.48-1,.26-2,.47-2.92.74l-2.6.72c-1.62.42-2.94.91-3.87,1.18l-1.47.47a.16.16,0,0,1-.21-.11A.17.17,0,0,1,185.71,364.6Z" transform="translate(0 -11.02)"/><path d="M166.91,292.21l1.9,1.64,2.18,1.88c.42.36.86.76,1.34,1.15l1.54,1.21,3.46,2.71c1.24,1,2.62,1.86,4,2.85s2.82,2,4.36,2.94l4.59,2.88,4.72,2.69c.78.43,1.54.9,2.33,1.29l2.32,1.15c1.53.75,3,1.53,4.42,2.16l4,1.72,1.8.77c.57.24,1.14.42,1.65.61l2.71,1,2.36.84h0a.17.17,0,0,1,.1.22.17.17,0,0,1-.21.1l-2.39-.78-2.74-.9c-.52-.18-1.09-.34-1.68-.57l-1.81-.75-4.09-1.69c-1.44-.62-2.91-1.4-4.46-2.13L197,314c-.8-.38-1.56-.85-2.35-1.27l-4.76-2.66-4.59-2.94c-1.54-.93-3-2-4.36-3s-2.76-1.93-4-2.9l-3.47-2.76L172,297.27c-.48-.41-.9-.81-1.32-1.18l-2.13-1.94-1.85-1.69a.17.17,0,0,1,.22-.25Z" transform="translate(0 -11.02)"/><path d="M199.29,306l3.58-4.67c2.16-2.8,5.07-6.5,8-10.2l8.44-9.83,2.82-3.21,1.07-1.22a.16.16,0,0,1,.24,0,.17.17,0,0,1,0,.23s-.38.45-1,1.25l-2.7,3.3-8.31,9.93c-2.94,3.68-5.88,7.36-8.12,10.1l-3.75,4.54a.18.18,0,0,1-.24,0A.17.17,0,0,1,199.29,306Z" transform="translate(0 -11.02)"/><path d="M174.64,609.3s1-.29,2.44-.69,3.44-.87,5.41-1.35,4-.68,5.52-.9,2.52-.34,2.52-.34a.16.16,0,0,1,.19.14.17.17,0,0,1-.13.18h0s-1,.23-2.47.54l-2.54.51c-.93.18-1.93.35-2.92.55-2,.45-4,.9-5.44,1.2l-2.49.47a.17.17,0,0,1-.2-.13A.17.17,0,0,1,174.64,609.3Z" transform="translate(0 -11.02)"/><path d="M319,595.94s.88-.65,2.21-1.59c.67-.47,1.45-1,2.34-1.55s1.82-1.1,2.75-1.68l2.84-1.51c.9-.5,1.78-.89,2.52-1.23,1.5-.68,2.5-1.11,2.5-1.11a.16.16,0,0,1,.22.08.17.17,0,0,1-.07.22h0s-1,.53-2.4,1.29-3.34,1.84-5.25,2.88l-2.75,1.62c-.89.5-1.71,1-2.39,1.45-1.4.86-2.34,1.41-2.34,1.41a.17.17,0,0,1-.23-.06A.17.17,0,0,1,319,595.94Z" transform="translate(0 -11.02)"/><path d="M154.82,470.69s.47.95,1.13,2.39,1.49,3.37,2.32,5.31,1.41,4,1.9,5.49.8,2.52.8,2.52a.18.18,0,0,1-.12.21.16.16,0,0,1-.2-.09h0s-.41-1-1-2.44-1.31-3.44-2-5.41-1.61-3.89-2.18-5.37-.92-2.47-.92-2.47a.17.17,0,0,1,.1-.22A.16.16,0,0,1,154.82,470.69Z" transform="translate(0 -11.02)"/><path d="M275.56,467.85l.48.4a2.66,2.66,0,0,1,.53.5l.64.72c.23.27.43.57.67.89a11.4,11.4,0,0,1,.7,1c.46.73.95,1.5,1.38,2.31s.82,1.64,1.18,2.42.61,1.54.87,2.18a6.86,6.86,0,0,1,.28.89c.08.27.15.5.2.7l.17.6a.18.18,0,0,1-.12.21.17.17,0,0,1-.2-.1h0s-.09-.21-.23-.58c-.08-.18-.16-.41-.26-.66s-.2-.55-.35-.86c-.28-.61-.58-1.34-1-2.1s-.75-1.57-1.21-2.35-.87-1.57-1.31-2.3c-.21-.36-.44-.7-.64-1s-.41-.64-.6-.9l-.54-.72a3.29,3.29,0,0,0-.46-.54l-.44-.45h0a.17.17,0,0,1,0-.24A.17.17,0,0,1,275.56,467.85Z" transform="translate(0 -11.02)"/><path d="M185.53,445s.16-3.6.41-9c.06-1.35.14-2.81.22-4.36s.2-3.17.31-4.86c.22-3.37.47-7,.71-10.56s.71-7.17,1-10.54c.17-1.67.31-3.3.5-4.84s.4-3,.58-4.33c.76-5.35,1.26-8.92,1.26-8.92a.18.18,0,0,1,.19-.14.17.17,0,0,1,.14.19h0s-.42,3.58-1.06,8.94c-.17,1.34-.35,2.79-.54,4.33s-.3,3.16-.46,4.84c-.3,3.36-.62,6.94-1,10.53s-.54,7.18-.79,10.54c-.12,1.68-.27,3.31-.35,4.85s-.19,3-.27,4.36l-.6,9a.17.17,0,1,1-.34,0Z" transform="translate(0 -11.02)"/><path d="M224.08,383.94l4.49,8.65,2.15,4.2c.78,1.48,1.51,3.1,2.32,4.74,1.58,3.29,3.27,6.81,5,10.32s3.18,7.12,4.68,10.46c.73,1.67,1.48,3.27,2.13,4.82l1.86,4.34,3.78,9a.17.17,0,0,1-.09.22.16.16,0,0,1-.22-.09s-1.59-3.56-4-8.9l-1.89-4.32c-.67-1.54-1.43-3.14-2.18-4.8l-4.76-10.41-4.88-10.35c-.79-1.64-1.51-3.26-2.27-4.75l-2.12-4.22-4.31-8.74a.17.17,0,0,1,.08-.22A.16.16,0,0,1,224.08,383.94Z" transform="translate(0 -11.02)"/><path d="M163.67,629.85l2.11.38,2.43.43,1.49.27,1.66.21,3.74.45c1.32.19,2.74.22,4.19.34s3,.23,4.5.24l4.65.11h4.65c1.53,0,3,0,4.51-.08,2.92-.06,5.65-.19,8-.3l7.79-.36a.16.16,0,0,1,.18.16.16.16,0,0,1-.15.17l-2.15.17c-1.36.09-3.3.28-5.64.39s-5.07.3-8,.39c-1.47,0-3,.12-4.52.12l-4.67,0-4.67-.15c-1.54,0-3-.19-4.51-.29s-2.88-.18-4.21-.38l-3.77-.5c-.58-.09-1.14-.15-1.67-.24l-1.48-.31-2.41-.5-2.11-.44a.18.18,0,0,1-.13-.2A.19.19,0,0,1,163.67,629.85Z" transform="translate(0 -11.02)"/><path d="M337.37,614.21l5.87-4.91L346.1,607c1-.83,2.06-1.75,3.16-2.67l6.84-5.83,6.71-6c1.06-1,2.14-1.84,3.07-2.77l2.65-2.58,5.53-5.28h0a.17.17,0,0,1,.24,0,.17.17,0,0,1,0,.23l-5.39,5.44-2.64,2.61c-.92.94-2,1.83-3,2.81l-6.67,6-6.9,5.76c-1.11.92-2.16,1.82-3.19,2.64l-2.89,2.33-6,4.75a.17.17,0,0,1-.24,0A.17.17,0,0,1,337.37,614.21Z" transform="translate(0 -11.02)"/><path class="cls-14" d="M384.69,221.25s12.82-11.31,17.86-6.85,5.7,12.76,4.39,19.48S387.19,228.5,384.69,221.25Z" transform="translate(0 -11.02)"/><path class="cls-15" d="M254.25,223.4s14.69,29.59,39.92,37.08S370,262,370,262l.64-19.76s-52.25-.62-69.68-24.17-24.12-58.24-31.65-60.78S254.25,223.4,254.25,223.4Z" transform="translate(0 -11.02)"/><path class="cls-16" d="M301,218.06c-6.31-8.51-11.2-18.48-15.24-27.86A559,559,0,0,0,274,248.81a54.11,54.11,0,0,0,20.14,11.67,69.32,69.32,0,0,0,7.72,1.77c5.18-10.48,11.07-20.62,16.37-30.94C311.31,228,305.14,223.69,301,218.06Z" transform="translate(0 -11.02)"/><path class="cls-17" d="M334.28,201c4.31-4.89,60.33-7.17,64.38-5.16s-2.36,94.4-4.23,97.58S333.81,299,331.71,296,332.21,203.36,334.28,201Z" transform="translate(0 -11.02)"/><path class="cls-18" d="M348.94,204.2s1.26-9,4.42-11.19,6.65,3.34,6.61,2.21-1.58-8.13-.22-8.92,16.88-2.85,18.24-1.5.21,6.22.6,8,4.11-2.47,6.75-1.37,1.59,11.51,1.59,11.51Z" transform="translate(0 -11.02)"/><path class="cls-10" d="M362.62,191.15s-.65,7.83.7,9.16,10.44.52,11.46-.61.81-9.6-.67-10.12S363.69,189.12,362.62,191.15Z" transform="translate(0 -11.02)"/><path class="cls-16" d="M337.66,206.55c3.85-4.24,53.93-6.13,57.56-4.38s-2,81.93-3.63,84.69-54.19,4.71-56.07,2.17S335.81,208.59,337.66,206.55Z" transform="translate(0 -11.02)"/><path d="M264.16,214s.48-1.81,1.19-4.52,1.73-6.31,2.75-9.91,2.26-7.14,3.14-9.81,1.49-4.43,1.49-4.43a.16.16,0,0,1,.21-.11.17.17,0,0,1,.11.21h0s-.52,1.8-1.29,4.5-1.88,6.26-3,9.83-2.08,7.19-2.91,9.87-1.39,4.46-1.39,4.46a.16.16,0,0,1-.21.11A.17.17,0,0,1,264.16,214Z" transform="translate(0 -11.02)"/><path d="M266.83,239l1.64,2,.87,1,1.1,1.14c.77.82,1.65,1.74,2.7,2.66l1.6,1.46,1.82,1.45.94.75,1,.71c.69.47,1.4,1,2.11,1.45,1.5.87,3,1.85,4.66,2.63s3.33,1.56,5,2.31,3.46,1.33,5.22,1.82,3.5.95,5.18,1.38,3.35.7,4.94.88l2.3.31,2.17.2c1.39.14,2.66.2,3.79.24s2.12.1,2.94.09h2.56a.17.17,0,0,1,.17.16.16.16,0,0,1-.16.17l-2.57.06c-.82,0-1.81,0-2.95,0s-2.43,0-3.82-.18l-2.19-.18-2.32-.3c-1.6-.16-3.26-.55-5-.84s-3.48-.78-5.24-1.35-3.53-1.16-5.29-1.8-3.45-1.47-5.07-2.37-3.18-1.81-4.69-2.7l-2.12-1.49-1-.72-.95-.77-1.82-1.48-1.61-1.49c-.51-.49-1-.92-1.46-1.39l-1.23-1.35L269,242.3l-.84-1.05-1.59-2a.17.17,0,0,1,0-.24A.17.17,0,0,1,266.83,239Z" transform="translate(0 -11.02)"/><path d="M342.61,216.91s.05-.23.17-.64a11.1,11.1,0,0,1,.69-1.74,6.46,6.46,0,0,1,1.81-2.32,3.64,3.64,0,0,1,1.72-.71,2.75,2.75,0,0,1,1,0,2,2,0,0,1,1,.58,3.91,3.91,0,0,1,.77,2.12c.09.75.11,1.51.16,2.28a8.31,8.31,0,0,0,.14,1.13,1.34,1.34,0,0,0,.44.86.6.6,0,0,0,.39.11,1,1,0,0,0,.47-.12,2.69,2.69,0,0,0,.8-.78c.92-1.35,1.45-3.06,2.34-4.66a5.92,5.92,0,0,1,.84-1.15,1.81,1.81,0,0,1,1.47-.65,2.29,2.29,0,0,1,.73.17,2.63,2.63,0,0,1,.68.39,5.51,5.51,0,0,1,1,1.08c.54.77,1,1.56,1.49,2.25a2.49,2.49,0,0,0,2,1.22l1.33,0,1.3-.06c.87,0,1.71-.07,2.56-.15,3.39-.24,6.55-.52,9.26-.78l9-.83a.18.18,0,0,1,.19.15.17.17,0,0,1-.15.18l-2.48.3c-1.58.18-3.83.47-6.54.74s-5.87.59-9.26.86c-.84.08-1.73.12-2.61.17L364,217l-1.33,0h-.34c-.19,0-.27-.07-.41-.11a2.52,2.52,0,0,1-.68-.33,4.8,4.8,0,0,1-1-1c-.57-.74-1-1.54-1.53-2.26a5.08,5.08,0,0,0-.84-.94,1.76,1.76,0,0,0-.48-.29,1.59,1.59,0,0,0-.58-.14,1.23,1.23,0,0,0-.9.44,5.56,5.56,0,0,0-.74,1c-.87,1.5-1.4,3.21-2.42,4.68a3.11,3.11,0,0,1-1,1,1.89,1.89,0,0,1-.72.19,1.23,1.23,0,0,1-.77-.23,1.92,1.92,0,0,1-.68-1.23,10.45,10.45,0,0,1-.14-1.21c0-.79-.05-1.55-.13-2.25a3.34,3.34,0,0,0-.63-1.83,1.68,1.68,0,0,0-1.56-.45,3.15,3.15,0,0,0-1.5.58,6,6,0,0,0-1.73,2.12,10.35,10.35,0,0,0-.71,1.66c-.13.4-.18.62-.18.62a.16.16,0,0,1-.2.12A.17.17,0,0,1,342.61,216.91Z" transform="translate(0 -11.02)"/><path d="M342.94,224.61l8.37-.58,8.58-.53,4.84-.3.62,0,.58-.09a3.14,3.14,0,0,0,1-.45,6.53,6.53,0,0,0,1.57-1.78,4.76,4.76,0,0,1,.93-1,2.62,2.62,0,0,1,1.33-.5,3.26,3.26,0,0,1,.7,0,4.28,4.28,0,0,1,.65.14,2.78,2.78,0,0,1,1.18.78,5.88,5.88,0,0,1,1.17,2.29c.12.39.24.77.37,1.13s.32.67.52.74.11,0,.17,0,.11,0,.05,0l.14-.05c.22-.06.26-.17.39-.24a5.11,5.11,0,0,0,.68-.83c.42-.61.8-1.25,1.23-1.85a5,5,0,0,1,1.57-1.55,2.16,2.16,0,0,1,2.13,0l.25.12.19.13.37.27a5.22,5.22,0,0,1,.7.54,12,12,0,0,1,1.18,1.19,16.38,16.38,0,0,1,1.6,2.14,17.28,17.28,0,0,1,1.14,2,.17.17,0,1,1-.3.15,17.82,17.82,0,0,0-1.17-2,16.09,16.09,0,0,0-1.62-2.05,13.1,13.1,0,0,0-1.13-1.09,6.36,6.36,0,0,0-.7-.52l-.38-.26-.19-.13-.18-.08a1.62,1.62,0,0,0-1.62,0,4.59,4.59,0,0,0-1.37,1.4c-.4.58-.77,1.22-1.21,1.86a5.91,5.91,0,0,1-.76.94,2.35,2.35,0,0,1-.59.37l-.14.05a.55.55,0,0,1-.24,0,.69.69,0,0,1-.4-.06,1.77,1.77,0,0,1-.89-1.08c-.15-.39-.27-.78-.4-1.16a5.13,5.13,0,0,0-1-2,2.26,2.26,0,0,0-.86-.58,4.2,4.2,0,0,0-.57-.12,2.53,2.53,0,0,0-.55,0,2.41,2.41,0,0,0-1.76,1.21,7.14,7.14,0,0,1-1.76,1.94,4.15,4.15,0,0,1-1.28.54l-.65.09-.62,0-4.84.25-8.59.45-8.38.37a.15.15,0,0,1-.17-.16A.15.15,0,0,1,342.94,224.61Z" transform="translate(0 -11.02)"/><path d="M342.28,231.36H350l3.71,0h2.53a4.12,4.12,0,0,0,.51,0,2.53,2.53,0,0,0,.83-.37,7.39,7.39,0,0,0,1.46-1.49,7,7,0,0,1,1.66-1.65,2.72,2.72,0,0,1,1.23-.41,5.58,5.58,0,0,1,.67,0,5.12,5.12,0,0,1,.57.17,2.78,2.78,0,0,1,1.09.74,5.59,5.59,0,0,1,.67,1A3.33,3.33,0,0,0,366.2,231a4.21,4.21,0,0,0,2.07.36l4.43,0c2.88,0,5.56.06,7.86,0l7.66,0a.16.16,0,0,1,.17.16.18.18,0,0,1-.17.17l-7.67.23c-2.31,0-5,0-7.86,0h-4.44a4.81,4.81,0,0,1-2.37-.41,4,4,0,0,1-1.61-1.86,6.06,6.06,0,0,0-.58-.9,2.18,2.18,0,0,0-.78-.55,4.83,4.83,0,0,0-.53-.16l-.46,0a1.93,1.93,0,0,0-.91.3c-1.16.72-1.82,2.21-3.13,3.09a2.87,2.87,0,0,1-1.12.45,5.29,5.29,0,0,1-.54,0h-.54l-2,0-3.71-.07-7.67-.18a.18.18,0,0,1-.16-.18.17.17,0,0,1,.17-.16Z" transform="translate(0 -11.02)"/><path d="M389.12,245.72a6.46,6.46,0,0,0-.23-.64,11,11,0,0,0-.87-1.71,5.84,5.84,0,0,0-2.07-2,3.44,3.44,0,0,0-1.68-.44,1.84,1.84,0,0,0-1.64.61,3.61,3.61,0,0,0-.57,2c-.06.76,0,1.56-.08,2.41a5,5,0,0,1-.23,1.32,1.42,1.42,0,0,1-1.14,1,.69.69,0,0,1-.24,0h-.16c-.11,0-.22,0-.33,0a2.21,2.21,0,0,1-.72-.36,2.81,2.81,0,0,1-.54-.49,3.38,3.38,0,0,1-.45-.55c-1.1-1.5-1.76-3.31-2.9-4.72a2.62,2.62,0,0,0-1-.78.53.53,0,0,0-.27-.06,1.38,1.38,0,0,0-.25,0,2.21,2.21,0,0,0-.63.16,4.83,4.83,0,0,0-1.84,1.88,13,13,0,0,1-1.78,2.37,3.1,3.1,0,0,1-1.35.81l-.19.06-.13,0h-.09l-.36,0-.71,0c-.94.07-1.91,0-2.84,0s-1.87-.05-2.77-.09c-3.62-.13-7-.33-9.88-.49s-5.29-.36-7-.48l-2.65-.19a.17.17,0,0,1-.15-.18.18.18,0,0,1,.18-.16l9.62.47c2.89.14,6.26.31,9.87.41.9,0,1.82.06,2.73.07s1.84.06,2.8,0l.71-.05.36,0h.08s0,0,0,0l.15,0a2.49,2.49,0,0,0,1.07-.67,12.22,12.22,0,0,0,1.66-2.26,10.05,10.05,0,0,1,.9-1.19,3.39,3.39,0,0,1,1.29-1,2.68,2.68,0,0,1,.76-.18,1.72,1.72,0,0,1,.46,0,.93.93,0,0,1,.41.11l.39.18.31.25a4,4,0,0,1,.54.55c1.23,1.58,1.86,3.37,2.89,4.79a3.25,3.25,0,0,0,.4.5,2.82,2.82,0,0,0,.44.41c.16.15.3.15.45.26l.32,0,.16,0c-.05,0,.06,0,.08,0,.68-.06.84-1,.88-1.77s0-1.62.1-2.41a4.15,4.15,0,0,1,.71-2.28,2.16,2.16,0,0,1,1-.68,3.41,3.41,0,0,1,1.09-.11,3.91,3.91,0,0,1,1.89.55,6.16,6.16,0,0,1,2.17,2.23,10.67,10.67,0,0,1,.87,1.79,6.59,6.59,0,0,1,.22.68h0a.17.17,0,0,1-.11.21A.18.18,0,0,1,389.12,245.72Z" transform="translate(0 -11.02)"/><path d="M340.81,254.77h7.68l3.71,0,2,0h.5c.17,0,.36,0,.51,0a2.5,2.5,0,0,0,.83-.36,7.45,7.45,0,0,0,1.46-1.5,7.22,7.22,0,0,1,1.66-1.65,2.6,2.6,0,0,1,1.23-.4,3.21,3.21,0,0,1,.67.05,3.53,3.53,0,0,1,.57.16,2.78,2.78,0,0,1,1.09.74,5.65,5.65,0,0,1,.67,1,3.33,3.33,0,0,0,1.31,1.59,4.21,4.21,0,0,0,2.07.35l4.43,0c2.88,0,5.56.07,7.86,0l7.66,0a.17.17,0,0,1,.17.16.18.18,0,0,1-.17.17l-7.67.23c-2.31.06-5,0-7.86,0l-4.44,0a4.94,4.94,0,0,1-2.37-.42,4.07,4.07,0,0,1-1.61-1.85,5,5,0,0,0-.58-.9,2.18,2.18,0,0,0-.78-.55,3.33,3.33,0,0,0-.53-.16c-.11,0-.31,0-.46,0a2,2,0,0,0-.91.3c-1.16.72-1.82,2.22-3.13,3.09a2.74,2.74,0,0,1-1.12.46,5.17,5.17,0,0,1-.54,0h-.54l-2,0-3.71-.06-7.67-.19a.17.17,0,0,1-.16-.17.18.18,0,0,1,.17-.17Z" transform="translate(0 -11.02)"/><path d="M340.66,262.6s.75-.1,2.1-.23l2.43-.16h1.5c.25,0,.57,0,.79,0a2.12,2.12,0,0,0,.74-.13c1-.37,1.67-1.46,2.55-2.46a3.92,3.92,0,0,1,1.76-1.26,3.83,3.83,0,0,1,.59-.1c.2,0,.37,0,.61.06s.33.08.52.15a2,2,0,0,1,.55.28,4.65,4.65,0,0,1,1.42,1.83,2.63,2.63,0,0,0,1.42,1.35,5.93,5.93,0,0,0,2.15.23l2.29,0,9,.19c2.88.07,5.56.09,7.86.12l7.67.15a.16.16,0,0,1,.16.17.16.16,0,0,1-.16.16l-7.68,0c-2.3,0-5,0-7.87,0l-9-.09-2.3-.05a6.76,6.76,0,0,1-2.36-.29,3,3,0,0,1-1-.69,4,4,0,0,1-.69-1,4.12,4.12,0,0,0-1.2-1.62,2.16,2.16,0,0,0-.39-.22c-.15-.06-.34-.09-.5-.14l-.44,0-.44.07A3.31,3.31,0,0,0,351.2,260c-.86.93-1.56,2.1-2.79,2.58a3,3,0,0,1-.91.15c-.33,0-.56,0-.83,0l-1.47,0-2.41.09c-1.33.09-2.1.17-2.1.17a.17.17,0,0,1-.18-.15A.18.18,0,0,1,340.66,262.6Z" transform="translate(0 -11.02)"/><path d="M345,269.35l1.78,2.27c1.05,1.36,2.42,3.22,3.78,5.08s2.68,3.75,3.65,5.18l1.61,2.39a.16.16,0,0,1,0,.23.16.16,0,0,1-.22,0l-1.78-2.27c-1.05-1.37-2.42-3.23-3.78-5.09s-2.68-3.74-3.66-5.17l-1.6-2.4a.17.17,0,0,1,0-.23A.17.17,0,0,1,345,269.35Z" transform="translate(0 -11.02)"/><path d="M342.75,284.18l1.71-2.58c.27-.38.55-.79.85-1.23s.68-.86,1-1.32c.76-.89,1.56-1.85,2.36-2.81l2.6-2.56a16.17,16.17,0,0,1,1.23-1.15l1.17-.95,2.45-1.91a.15.15,0,0,1,.23,0,.16.16,0,0,1,0,.23h0L354.07,272,353,273c-.41.34-.76.77-1.18,1.17-.81.82-1.67,1.7-2.54,2.57l-2.35,2.73c-.36.45-.77.84-1.07,1.27l-.9,1.2L343,284.38a.17.17,0,0,1-.23,0A.17.17,0,0,1,342.75,284.18Z" transform="translate(0 -11.02)"/><path class="cls-19" d="M389,227.73c3.94-3.11,16.51-4.82,17.55-1.86,3.47,5.84,2.23,30.28-2.37,32.95-2.27,1.62-17,.05-18-5.56S383.12,232.08,389,227.73Z" transform="translate(0 -11.02)"/><path d="M385.33,249.79l3.1.33,6.8.77,3.63.28c.58,0,1.14.12,1.68.12l1.5,0,3.1.08h0a.17.17,0,0,1,0,.34l-3.13.12-1.51.05c-.54,0-1.11,0-1.69-.07l-3.67-.23-3.64-.46c-1.17-.13-2.24-.33-3.17-.48l-3.07-.54a.16.16,0,0,1-.13-.19A.16.16,0,0,1,385.33,249.79Z" transform="translate(0 -11.02)"/><path d="M385,242.83h3.11c1.87,0,4.36.06,6.84.13s5,.15,6.84.24l3.11.17h0a.16.16,0,0,1,.16.17.17.17,0,0,1-.17.16l-3.11,0c-1.87,0-4.36,0-6.85-.07s-5-.19-6.84-.29l-3.11-.21a.16.16,0,0,1-.16-.17A.17.17,0,0,1,385,242.83Z" transform="translate(0 -11.02)"/><path d="M385.32,235.19l3.11-.32,1.5-.13c.53-.06,1.11-.05,1.69-.06l3.7,0,3.67.24c.59,0,1.15.06,1.69.14l1.5.22,3.09.49a.17.17,0,0,1,.14.19.16.16,0,0,1-.18.14h0l-3.1-.28-1.5-.15c-.53-.06-1.1,0-1.68-.09l-3.64-.19h-3.65c-.58,0-1.14,0-1.68,0l-1.51.07-3.12.1a.16.16,0,0,1-.17-.16A.16.16,0,0,1,385.32,235.19Z" transform="translate(0 -11.02)"/><path class="cls-6" d="M360.25,187.81s1-.34,2.6-.77l1.27-.33a14.62,14.62,0,0,1,1.46-.27c1-.16,2.12-.3,3.21-.44s2.2-.07,3.22-.08a12,12,0,0,1,1.48,0l1.33.12c1.63.17,2.71.33,2.71.33a.34.34,0,0,1,.28.38.33.33,0,0,1-.31.29h0s-1.08.07-2.69.09h-1.3c-.46,0-.94.07-1.44.08-1,.08-2.07.13-3.13.18s-2.11.25-3.1.34c-.49.06-1,.06-1.44.15l-1.29.21c-1.61.24-2.69.35-2.69.35a.34.34,0,0,1-.37-.31A.33.33,0,0,1,360.25,187.81Z" transform="translate(0 -11.02)"/><path class="cls-6" d="M351.29,201.85s0-.14-.09-.39a7.29,7.29,0,0,1-.15-1,7.83,7.83,0,0,1,.08-1.57,5.27,5.27,0,0,1,.18-.86c.09-.28.19-.57.28-.86s.28-.55.41-.82a4.28,4.28,0,0,1,.48-.74,5.77,5.77,0,0,1,.52-.64l.53-.5a6,6,0,0,1,.89-.64l.35-.21a.35.35,0,0,1,.46.14.33.33,0,0,1,0,.36l0,0-.24.3a7.94,7.94,0,0,0-.61.76c-.11.16-.23.34-.37.52a6.83,6.83,0,0,0-.37.6,5.25,5.25,0,0,0-.36.66c-.1.23-.22.46-.32.7s-.18.49-.26.73a6.68,6.68,0,0,0-.21.73,5.07,5.07,0,0,0-.16.68c0,.22-.08.43-.12.62-.08.39-.11.77-.14,1s-.06.39-.06.39a.34.34,0,0,1-.41.27A.35.35,0,0,1,351.29,201.85Z" transform="translate(0 -11.02)"/><path class="cls-6" d="M379.53,195.55l.09-.21a2.26,2.26,0,0,1,.29-.54,3.34,3.34,0,0,1,.63-.69,2.15,2.15,0,0,1,.41-.32l.46-.28.5-.2a2.51,2.51,0,0,1,.5-.14,3.78,3.78,0,0,1,.91-.08,3,3,0,0,1,.63.08,1.43,1.43,0,0,1,.24.05.36.36,0,0,1,.23.44.32.32,0,0,1-.18.21l0,0L384,194l-.52.19c-.2.09-.45.16-.69.28s-.49.22-.75.33-.49.25-.71.4a3,3,0,0,0-.32.19l-.29.18c-.18.1-.37.25-.48.32l-.2.12a.36.36,0,0,1-.49-.16A.39.39,0,0,1,379.53,195.55Z" transform="translate(0 -11.02)"/><path class="cls-8" d="M153.15,254.42c-4.19-11.26-8.1-40.9-9.63-45.23s-17.06-32.44-16.26-39.06,22.91-19.36,27.82-23.93,18.64-12.64,22.35-14.46,21.58,18.12,23.44,17.08,6.41-20.21,10-21,22.4,11.36,25.48,13.35,17.56,8.55,20.34,13.35-7.4,48.44-8.89,53.74-1.36,35.17-5.94,42.71-26.39,14.43-47.14,14S158,267.44,153.15,254.42Z" transform="translate(0 -11.02)"/><path class="cls-13" d="M212.24,226.57c-24.64,5.54-46.9-3.87-68.12-15,1.8,8.38,5.31,32.88,9,42.89,4.83,13,21,10.17,41.62,10.57s42.55-6.49,47.14-14,4.45-37.41,5.94-42.71c.18-.63.48-1.81.86-3.39C238.34,214.85,227,223.34,212.24,226.57Z" transform="translate(0 -11.02)"/><path class="cls-18" d="M201.54,175.33c.52-1,26.41-.54,27.45.29s1.51,5.57.35,6.51-26.25.55-27.12-.35S201.15,176.06,201.54,175.33Z" transform="translate(0 -11.02)"/><path d="M177.59,138.78l3.23,2.51c1.06.86,2.14,1.69,3.19,2.56,2.11,1.72,4.2,3.48,6.27,5.25,1,.87,2.05,1.79,3.08,2.69s2,1.8,3,2.74l1.5,1.39c.49.47,1,.92,1.48,1.41l2.86,2.94-.57.12,5.09-12.63c1.7-4.19,3.45-8.37,5.2-12.55h0a.16.16,0,0,1,.22-.09.17.17,0,0,1,.09.21c-1.64,4.23-3.29,8.45-5,12.66l-5,12.64a.33.33,0,0,1-.45.19.2.2,0,0,1-.12-.08l-2.86-2.9c-.46-.49-1-.94-1.46-1.41l-1.48-1.4c-1-1-2-1.86-3-2.76s-2-1.83-3.05-2.71c-2.06-1.79-4.12-3.55-6.22-5.3s-4.17-3.49-6.28-5.21a.16.16,0,0,1,0-.23A.15.15,0,0,1,177.59,138.78Z" transform="translate(0 -11.02)"/><path d="M174.92,181.22l7.4,4.09c1.1.63,2.3,1.3,3.57,2s2.65,1.38,4.05,2.12l8.83,4.51c6,3.06,12.09,6.06,16.59,8.42l7.49,3.93a.18.18,0,0,1,.07.23.18.18,0,0,1-.23.07l-7.57-3.75c-4.51-2.31-10.6-5.26-16.67-8.26L189.64,190c-1.4-.75-2.79-1.41-4-2.16l-3.55-2-7.29-4.27a.17.17,0,0,1-.06-.23A.15.15,0,0,1,174.92,181.22Z" transform="translate(0 -11.02)"/><path d="M203.77,189.15l2.26-3.6c1.36-2.16,3.23-5,5.1-7.84s3.57-5.78,4.94-7.93l2.31-3.57h0a.18.18,0,0,1,.24-.05.17.17,0,0,1,0,.22l-2.13,3.68c-1.29,2.21-3,5.13-4.82,8s-3.78,5.65-5.24,7.75l-2.43,3.48a.18.18,0,0,1-.24,0A.17.17,0,0,1,203.77,189.15Z" transform="translate(0 -11.02)"/><path d="M178.43,265.81l-2.25-.32c-.72-.09-1.58-.32-2.57-.52a15.21,15.21,0,0,1-1.56-.42,15.43,15.43,0,0,1-1.7-.57,20.49,20.49,0,0,1-3.64-1.76l-.93-.59-.88-.7a6.31,6.31,0,0,1-.86-.78,7.27,7.27,0,0,1-.8-.86,8.16,8.16,0,0,1-2-4.47,5.59,5.59,0,0,1,1.76-4.73,6.72,6.72,0,0,1,4.8-1.58,12.93,12.93,0,0,1,4.71,1.25,17.25,17.25,0,0,1,2,1.14l.94.61c.3.2.58.44.86.66a18,18,0,0,1,1.6,1.34c.49.46,1,.87,1.42,1.34a32,32,0,0,1,2.26,2.53c.64.78,1.21,1.46,1.61,2.06l1.34,1.85a.17.17,0,0,1,0,.23.16.16,0,0,1-.23,0h0l-1.37-1.8c-.42-.58-1-1.24-1.65-2s-1.44-1.57-2.29-2.46c-.42-.45-.92-.85-1.4-1.3a19,19,0,0,0-1.59-1.3c-.28-.2-.55-.44-.85-.64l-.92-.58a17.57,17.57,0,0,0-2-1.08,12.2,12.2,0,0,0-4.47-1.15,6.07,6.07,0,0,0-4.31,1.44,4.93,4.93,0,0,0-1.56,4.16,7.49,7.49,0,0,0,1.81,4.13,6.45,6.45,0,0,0,.75.82,5.72,5.72,0,0,0,.81.75l.84.68.89.58a20.56,20.56,0,0,0,3.53,1.74,13.74,13.74,0,0,0,1.66.58,15.32,15.32,0,0,0,1.52.47c1,.22,1.8.47,2.52.57l2.24.39a.17.17,0,0,1,.14.19A.18.18,0,0,1,178.43,265.81Z" transform="translate(0 -11.02)"/><path d="M212.73,262l.47-.74c.32-.45.68-1.16,1.29-1.91l1-1.22a13.78,13.78,0,0,1,1.17-1.29,18,18,0,0,1,1.32-1.3l1.45-1.26c.51-.4,1-.75,1.57-1.11a11.43,11.43,0,0,1,1.57-1c.53-.29,1-.6,1.53-.83l1.43-.61.63-.27.6-.19,1-.29.85-.25a.17.17,0,0,1,.2.11.17.17,0,0,1-.1.21h0l-.82.31-.93.35a10.21,10.21,0,0,0-1.18.52l-1.37.66c-.48.24-1,.56-1.46.85a12,12,0,0,0-1.53,1c-.49.37-1,.71-1.51,1.11l-1.43,1.21a17.32,17.32,0,0,0-1.31,1.25c-.4.43-.84.8-1.17,1.22l-1,1.15c-.63.71-1.07,1.39-1.41,1.82s-.53.7-.53.7a.17.17,0,0,1-.27-.19Z" transform="translate(0 -11.02)"/><path d="M171.16,235.47l1.49.83c.95.5,2.28,1.32,3.94,2.13l2.67,1.33c.94.49,2,.89,3,1.39s2.14,1,3.28,1.4L189,243.9l3.48,1.21c1.14.42,2.29.74,3.4,1.07s2.17.68,3.2.92l2.9.73c1.79.47,3.32.73,4.37,1l1.66.36h0a.17.17,0,0,1-.07.33l-1.68-.3-1.92-.34c-.75-.12-1.59-.28-2.49-.51l-2.92-.69c-1.05-.23-2.11-.58-3.24-.89s-2.28-.62-3.43-1l-3.51-1.18-3.44-1.38c-1.15-.43-2.23-1-3.29-1.43s-2.09-.93-3-1.44l-2.66-1.41c-.84-.42-1.57-.85-2.21-1.25l-1.67-1-1.46-.88a.16.16,0,0,1-.05-.23A.17.17,0,0,1,171.16,235.47Z" transform="translate(0 -11.02)"/><path class="cls-19" d="M100.12,137.18c-.17-3.48-2.33-23.93-4.43-28.63s-7.79-15.22-5.27-17.8,9.31,18.09,11,17.32S94.2,83.6,97.73,81.67s8.92,24.19,10.77,23.9-6.71-29.3-1.46-28.18,4.19,27.86,6.95,28-1.36-20,2.68-19.56,1.54,34,3.45,34.86,7.26-14.28,11.91-11.37-2.32,14.83-6.17,22.47-5.43,13.51-11.48,14.19S100.35,142,100.12,137.18Z" transform="translate(0 -11.02)"/><path d="M104.1,127.28l.71-.21.82-.25a8.89,8.89,0,0,1,1.1-.22c.41-.06.86-.16,1.33-.2l1.48-.1c.51,0,1,0,1.58,0a14.8,14.8,0,0,1,1.63.06l1.62.17c.54.07,1.06.18,1.56.26a26.3,26.3,0,0,1,2.73.65c.79.2,1.42.51,1.87.65l.7.27a.16.16,0,0,1,.1.21.17.17,0,0,1-.21.11h0l-.71-.2c-.46-.12-1.09-.34-1.88-.5l-1.27-.28c-.45-.11-.93-.16-1.43-.25s-1-.17-1.53-.23l-1.59-.14c-.54-.07-1.07-.06-1.6-.09s-1-.06-1.55,0l-1.44.05c-.46,0-.88.09-1.28.13s-.76.06-1.08.14l-.84.17-.73.16a.17.17,0,0,1-.2-.13A.18.18,0,0,1,104.1,127.28Z" transform="translate(0 -11.02)"/><path d="M102.59,117.22l.65-.23.76-.25a4.78,4.78,0,0,1,1-.28l1.22-.25a9.88,9.88,0,0,1,1.37-.16,10.35,10.35,0,0,1,1.48-.06l1.53,0,1.52.22a9.71,9.71,0,0,1,1.44.32,10.33,10.33,0,0,1,1.33.39l1.15.45a5.5,5.5,0,0,1,.94.44l.71.38.61.34a.15.15,0,0,1,.07.22.17.17,0,0,1-.21.08h0l-.63-.27c-.41-.16-1-.46-1.67-.68l-1.14-.37a11.74,11.74,0,0,0-1.3-.33,10.2,10.2,0,0,0-1.4-.29l-1.46-.19-1.47-.06a11.23,11.23,0,0,0-1.43,0c-.46.05-.92,0-1.33.1l-1.18.18a16.17,16.17,0,0,0-1.77.39l-.68.16a.16.16,0,0,1-.2-.12A.17.17,0,0,1,102.59,117.22Z" transform="translate(0 -11.02)"/><path class="cls-15" d="M97,139c1.84-2.59,19.74,2.84,20.9,5.24S103,193.5,104.45,196.06s17.77-37.26,19.65-27.84-3.45,64.2-4.94,67.16S84.83,261,76.76,255.26,49,206.55,97,139Z" transform="translate(0 -11.02)"/><path class="cls-16" d="M117.9,144.28c-1.16-2.4-19.06-7.83-20.9-5.24-19.1,26.85-27.47,49.81-30.14,68.1,14.44-10.71,27.59-22.95,42.66-31.82C113.62,161.49,118.56,145.65,117.9,144.28Z" transform="translate(0 -11.02)"/><path d="M94.64,206l-2.33.87c-.75.27-1.58.73-2.58,1.19-.48.25-1,.57-1.49.88a12.07,12.07,0,0,0-1.58,1.09,13.08,13.08,0,0,0-3,3.1,8.22,8.22,0,0,0-1.27,4.47,7.93,7.93,0,0,0,1.73,4.63,9.38,9.38,0,0,0,4.17,3,8.4,8.4,0,0,0,5.1.23,10,10,0,0,0,4.3-2.57,16.36,16.36,0,0,0,2.71-4c.17-.34.34-.68.5-1s.27-.69.4-1a18.59,18.59,0,0,0,.68-2,33.44,33.44,0,0,0,.87-3.58,26.87,26.87,0,0,0,.47-2.81c.19-1.57.3-2.46.3-2.46h0a.17.17,0,0,1,.33,0s-.09.91-.24,2.49a28.3,28.3,0,0,1-.4,2.85c-.1.54-.16,1.13-.32,1.74s-.32,1.24-.49,1.9a20.16,20.16,0,0,1-.68,2c-.13.35-.24.71-.4,1.06s-.33.69-.51,1.05a16.52,16.52,0,0,1-2.78,4.12,10.72,10.72,0,0,1-4.56,2.78,9.14,9.14,0,0,1-5.52-.2,10,10,0,0,1-4.46-3.26,8.58,8.58,0,0,1-1.82-5,8.83,8.83,0,0,1,1.41-4.79,13.4,13.4,0,0,1,3.1-3.21,20.63,20.63,0,0,1,3.19-2c1-.43,1.9-.88,2.65-1.13l2.36-.81a.16.16,0,1,1,.11.31Z" transform="translate(0 -11.02)"/><path d="M97.14,143.2s1,.32,2.6.84,3.6,1.25,5.65,2,4.08,1.53,5.6,2.15l2.52,1a.18.18,0,0,1,.09.22.19.19,0,0,1-.21.1l-2.59-.84c-1.55-.52-3.6-1.25-5.65-2s-4.08-1.53-5.6-2.15-2.52-1-2.52-1a.17.17,0,0,1-.09-.23A.18.18,0,0,1,97.14,143.2Z" transform="translate(0 -11.02)"/><path d="M118.49,230.67l0-6.12c0-3.67,0-8.57,0-13.46s.14-9.79.19-13.46c0-1.84.08-3.37.11-4.44s0-1.68,0-1.68a.17.17,0,0,1,.18-.16.16.16,0,0,1,.16.16l0,1.68c0,1.08,0,2.61,0,4.44,0,3.67,0,8.57,0,13.46s-.11,9.79-.19,13.46l-.15,6.12a.17.17,0,0,1-.17.16A.16.16,0,0,1,118.49,230.67Z" transform="translate(0 -11.02)"/><path d="M81.57,253.11s.52-.17,1.41-.49,2.21-.72,3.7-1.34l2.44-1c.87-.32,1.74-.79,2.67-1.19s1.89-.82,2.82-1.34l2.87-1.49,2.8-1.61c.93-.52,1.8-1.11,2.65-1.66s1.69-1.06,2.43-1.62l2.13-1.54c1.33-.93,2.35-1.83,3.11-2.4l1.16-.93h0a.17.17,0,0,1,.24,0,.17.17,0,0,1,0,.23l-1.13,1-1.3,1.13a21.72,21.72,0,0,1-1.73,1.4l-2.1,1.6c-.74.58-1.59,1.1-2.43,1.68s-1.72,1.17-2.66,1.69l-2.81,1.66-2.9,1.48c-1,.51-1.93.91-2.86,1.33s-1.83.84-2.72,1.15l-2.48.92c-.76.3-1.47.52-2.11.71l-1.64.49-1.43.43a.16.16,0,0,1-.21-.11A.17.17,0,0,1,81.57,253.11Z" transform="translate(0 -11.02)"/><path class="cls-16" d="M122.54,165.59c4.58-6.92,46.72-36.73,49.62-35.78s-.07,48.14-3.5,86.31-6.12,95.13-11.38,134.14-7.61,103.31-10.92,105.17-57.55-26.28-58.55-31.22,4.45-64.91,10.9-87,14.37-55.86,17.72-85.44S121.23,167.56,122.54,165.59Z" transform="translate(0 -11.02)"/><path class="cls-15" d="M87.81,424.21c1,4.94,55.25,33.07,58.55,31.22,2.77-1.55,4.86-46.77,8.55-84.35-18.88-10.67-37.82-21.35-56.65-32.27C92,362,86.83,419.39,87.81,424.21Z" transform="translate(0 -11.02)"/><path d="M89.42,414.12l8.45,4.22,18.54,9.41,18.47,9.56,8.37,4.41a.16.16,0,1,1-.15.29s-3.39-1.68-8.46-4.22l-18.54-9.41-18.47-9.56-8.36-4.4a.17.17,0,1,1,.15-.3Z" transform="translate(0 -11.02)"/><path class="cls-15" d="M172.16,129.81c-4-4.58-27.14,44.34-26.26,52.94s17.86,44.57,18.3,48.88-18,36.62-18.5,45.14,6.81,73.08,11.2,71.22S181.58,140.64,172.16,129.81Z" transform="translate(0 -11.02)"/><path d="M95.93,363.14l.44-3.07c.29-2,.62-4.76,1.19-8.1.27-1.67.57-3.49.88-5.4s.7-3.93,1.07-6,.76-4.25,1.22-6.42l1.37-6.61q.8-3.3,1.58-6.56c.49-2.17,1.1-4.27,1.66-6.32s1.06-4,1.66-5.88,1.14-3.6,1.65-5.22c.26-.81.5-1.58.74-2.32s.52-1.41.76-2.05c.47-1.3.89-2.42,1.23-3.35.68-1.86,1.08-2.92,1.08-2.92a.17.17,0,0,1,.21-.1.16.16,0,0,1,.1.21h0l-1,2.93c-.32.94-.71,2.07-1.16,3.37q-.33,1-.72,2.07c-.22.73-.46,1.51-.71,2.32-.5,1.61-1,3.37-1.61,5.22s-1,3.84-1.62,5.87-1.13,4.15-1.61,6.32-1,4.36-1.53,6.56l-1.4,6.58c-.49,2.17-.87,4.32-1.27,6.4s-.79,4.08-1.11,6-.63,3.72-.92,5.38l-1.83,11.14a.16.16,0,0,1-.19.14A.17.17,0,0,1,95.93,363.14Z" transform="translate(0 -11.02)"/><path d="M149.49,395s.11-2.44.28-6.11c0-.92.1-1.92.16-3s.17-2.15.28-3.3c.22-2.29.45-4.73.69-7.17s.69-4.86,1-7.14c.18-1.13.3-2.24.49-3.27s.37-2,.53-2.93c.34-1.8.62-3.31.82-4.36s.32-1.66.32-1.66a.17.17,0,0,1,.2-.13.17.17,0,0,1,.13.19h0s-.09.61-.26,1.67-.4,2.57-.68,4.38c-.15.91-.32,1.89-.49,2.92s-.29,2.14-.45,3.28c-.29,2.27-.61,4.7-.92,7.13s-.5,4.86-.73,7.14c-.11,1.14-.27,2.24-.33,3.29s-.15,2-.22,3l-.5,6.1a.16.16,0,0,1-.18.16A.17.17,0,0,1,149.49,395Z" transform="translate(0 -11.02)"/><path d="M133.35,253.13l2.67-2.88c1.61-1.72,3.8-4,6-6.24s4.42-4.47,6.11-6.12l2.82-2.74a.18.18,0,0,1,.24,0,.17.17,0,0,1,0,.23l-2.68,2.89c-1.61,1.72-3.79,4-6,6.24s-4.42,4.47-6.11,6.12l-2.82,2.74a.17.17,0,0,1-.24,0A.17.17,0,0,1,133.35,253.13Z" transform="translate(0 -11.02)"/><path d="M150.49,322.47s-.62-2.48-1.56-6.18c-.23-.93-.47-1.94-.74-3s-.44-2.21-.67-3.39c-.43-2.36-.88-4.87-1.34-7.39-.29-2.53-.59-5.07-.86-7.45-.12-1.19-.31-2.34-.36-3.43s-.13-2.13-.18-3.09c-.1-1.91-.18-3.5-.23-4.62s-.09-1.75-.09-1.75a.17.17,0,1,1,.34,0h0l.14,1.74c.09,1.11.22,2.7.37,4.6.07.95.14,2,.22,3.08s.27,2.23.4,3.41c.31,2.37.63,4.89.95,7.42s.88,5,1.29,7.36c.23,1.17.35,2.31.62,3.38s.47,2.08.67,3c.82,3.74,1.36,6.23,1.36,6.23a.17.17,0,0,1-.13.2A.17.17,0,0,1,150.49,322.47Z" transform="translate(0 -11.02)"/><path d="M149.56,194.78l2.21,4.95c1.31,3,3,7,4.72,10.94,1.9,3.89,3.79,7.79,5.17,10.72L164,226.3h0a.17.17,0,0,1-.08.22.16.16,0,0,1-.22-.07l-2.49-4.83c-1.48-2.9-3.41-6.79-5.33-10.68-1.68-4-3.36-8-4.58-11l-2-5a.16.16,0,0,1,.09-.22A.18.18,0,0,1,149.56,194.78Z" transform="translate(0 -11.02)"/><path class="cls-16" d="M223,128.48c1.72-1.79,44.48,24.66,46.07,27.87s-8.61,87.79-3.31,114.51,47.77,117,46.49,122.17S272.63,448,267.49,447.69,236.81,318.29,233.83,294,219.12,132.53,223,128.48Z" transform="translate(0 -11.02)"/><path class="cls-15" d="M246.93,365.66c8.19,40.38,17.65,81.89,20.56,82,5.14.26,43.49-49.5,44.78-54.66.73-2.95-12.76-33.56-25.48-64.29C273.59,341.05,260.64,353.71,246.93,365.66Z" transform="translate(0 -11.02)"/><path d="M266.33,429.55l5.79-6.49,12.82-14.19,12.95-14.07,5.93-6.35a.17.17,0,0,1,.24,0,.16.16,0,0,1,0,.23l-5.78,6.49-12.83,14.19-12.95,14.07-5.93,6.35a.17.17,0,0,1-.24,0A.17.17,0,0,1,266.33,429.55Z" transform="translate(0 -11.02)"/><path class="cls-15" d="M221.31,127.89c2.95-4.58,22.49,44.28,22.07,52.87s-12.46,44.51-12.66,48.81,15.12,36.58,15.81,45.09-2,74.42-3.77,70.88C235.18,330.11,214.33,138.7,221.31,127.89Z" transform="translate(0 -11.02)"/><path d="M242.08,336.18s.24.8.67,2.19c.21.7.47,1.54.77,2.51s.56,2.09.87,3.3.66,2.52,1,3.92.65,2.86,1,4.39c.69,3,1.38,6.3,2.09,9.55s1.35,6.51,2,9.57c.33,1.52.62,3,.95,4.39l.9,3.93c.53,2.43,1.08,4.44,1.42,5.85l.55,2.22h0a.16.16,0,0,1-.32.08s-.23-.8-.62-2.2c-.19-.71-.43-1.56-.7-2.54s-.57-2.08-.85-3.3-.61-2.53-.94-3.92-.64-2.87-1-4.39c-.66-3.05-1.37-6.3-2.08-9.56s-1.33-6.52-2-9.56l-.95-4.39c-.31-1.4-.65-2.7-.94-3.91s-.53-2.33-.8-3.3-.51-1.83-.7-2.54l-.61-2.2a.16.16,0,0,1,.11-.21A.18.18,0,0,1,242.08,336.18Z" transform="translate(0 -11.02)"/><path d="M239.59,231l1.81-2.57c1.09-1.54,2.58-3.57,4.09-5.59s2.85-4.12,3.95-5.65l1.86-2.54h0a.17.17,0,0,1,.24,0,.17.17,0,0,1,0,.23l-1.69,2.66c-1,1.59-2.42,3.68-3.84,5.77s-3,4-4.22,5.48l-2,2.46a.16.16,0,0,1-.23,0A.17.17,0,0,1,239.59,231Z" transform="translate(0 -11.02)"/><path d="M267.76,286.26s1.28,3.56,3.19,8.9c.47,1.34,1,2.79,1.51,4.32s1.17,3.12,1.78,4.78l3.91,10.38,4.14,10.29c.68,1.64,1.27,3.25,1.94,4.72l1.86,4.18,3.78,8.65h0a.17.17,0,0,1-.3.14l-4-8.58c-.59-1.29-1.22-2.69-1.89-4.17s-1.3-3.08-2-4.71L277.5,314.9c-1.31-3.55-2.62-7.1-3.84-10.43-.6-1.67-1.23-3.26-1.74-4.8s-1-3-1.48-4.33c-1.8-5.38-3-9-3-9a.17.17,0,0,1,.1-.21A.17.17,0,0,1,267.76,286.26Z" transform="translate(0 -11.02)"/><path d="M245.21,311.28s0-2,0-5,.11-7,.2-11c-.12-4-.23-8-.28-11s-.06-5-.06-5h0a.17.17,0,0,1,.17-.17.16.16,0,0,1,.16.16s.11,2,.27,5,.31,7,.45,11c-.12,4-.23,8-.36,11s-.23,5-.23,5a.16.16,0,0,1-.18.16A.17.17,0,0,1,245.21,311.28Z" transform="translate(0 -11.02)"/><path d="M229.77,228.35s.57-2.13,1.44-5.31,2.08-7.41,3.31-11.63l4-11.43,1.36-3.75.52-1.42a.17.17,0,0,1,.22-.1.17.17,0,0,1,.1.21h0s-.17.52-.46,1.44-.72,2.22-1.23,3.79l-3.85,11.45c-1.24,4.21-2.49,8.43-3.47,11.58s-1.64,5.25-1.64,5.25a.16.16,0,0,1-.21.11A.16.16,0,0,1,229.77,228.35Z" transform="translate(0 -11.02)"/><path class="cls-10" d="M167.16,104a27.66,27.66,0,0,1-13.69-16.11c-4.31-14-4.22-30.37-1.68-40,2.93-11.13,19.8-36.72,48.56-36.83C221,10.94,238.11,39.45,238,53.53s-.28,38.65-13.56,48.62S167.16,104,167.16,104Z" transform="translate(0 -11.02)"/><path class="cls-14" d="M165,67.59s-4.74-11.93-8.73-10.69-7.68,18.59-2.42,23.86,9.67,4.6,10.8,2.91S165,67.59,165,67.59Z" transform="translate(0 -11.02)"/><path class="cls-14" d="M224.79,87.44c.9,1.83,5.2,3,11.07-1.53s4.38-22.25.58-24-10,9.52-10,9.52S223.88,85.62,224.79,87.44Z" transform="translate(0 -11.02)"/><path class="cls-19" d="M183.22,134.32s4.8-4.07,4.5-6.54-1.48-15.23-4.62-15.53S167,104.41,165.19,94.91s-2.11-37.15-1.73-39.26,12.3-6.58,20.25-12.73a168.24,168.24,0,0,0,13.2-11.27s6.54,8.59,12.72,13.49,16.54,8.16,17.14,10.09,4.21,40-2.06,48.05-19.69,10.37-20,12.61.71,10.39.71,10.39l4.31,4.85s-7.14,18.69-8.69,19C199.94,150.38,183.22,134.32,183.22,134.32Z" transform="translate(0 -11.02)"/><path class="cls-14" d="M183.15,88.51c2.09-4.29,11.52,3.75,14.41,3s10.49-5.39,11.77-3.18-4,12.22-12.27,11.17S181.72,91.45,183.15,88.51Z" transform="translate(0 -11.02)"/><path class="cls-14" d="M181.38,111.75a7.51,7.51,0,0,0,1.72.5c3.14.3,4.32,13,4.62,15.53s-4.5,6.54-4.5,6.54,16.72,16.06,17.87,15.82c1.55-.32,8.69-19,8.69-19l-4.31-4.85s-1-8.16-.71-10.39c.1-.86,2.12-1.73,4.92-2.92C199.23,116,190.55,114.15,181.38,111.75Z" transform="translate(0 -11.02)"/><path class="cls-14" d="M167.39,73.39c5.19-6.52,16.77-2.92,18.89,4.52S180.11,91.84,173.16,90,161.85,80.35,167.39,73.39Z" transform="translate(0 -11.02)"/><path class="cls-14" d="M217.93,92.83c-7.12.94-14.54-6.53-11.5-13.65s15-9.24,19.3-2.13C230.36,84.65,225.05,91.89,217.93,92.83Z" transform="translate(0 -11.02)"/><path class="cls-6" d="M176.65,72.47c-.09-3.74,2-8,7.64-8.59s8.22,4.72,7.25,9.07c-1.07,5-3.1,6.67-7.88,6S176.73,76.22,176.65,72.47Z" transform="translate(0 -11.02)"/><path class="cls-20" d="M174.76,60.26c.25.79,7.62-2.8,11-2.54s9.12,4.17,9.74,3.53-1.82-8.31-8.15-8.29S174.13,58.22,174.76,60.26Z" transform="translate(0 -11.02)"/><path class="cls-20" d="M178.64,71.36c.22-3.58,3-6.31,6.25-6.11s5.66,3.27,5.43,6.84-3,6.31-6.24,6.11S178.41,74.93,178.64,71.36Z" transform="translate(0 -11.02)"/><path d="M180.06,62.59a1.13,1.13,0,0,1,.32-.45,4.12,4.12,0,0,1,.48-.42,6.31,6.31,0,0,1,.64-.46c.23-.16.5-.32.78-.49l.45-.25.12-.06.14-.05.25-.09A5.27,5.27,0,0,1,184.3,60a4.79,4.79,0,0,1,1.19-.15,4.68,4.68,0,0,1,1.18.12l.57.12c.18.06.35.14.52.21l.51.22.43.3a3.39,3.39,0,0,1,.73.6c.2.22.39.41.54.6s.24.37.32.52l.28.45a.18.18,0,0,1-.06.23.17.17,0,0,1-.22,0v0l-.32-.39-.35-.45-.55-.49a2.78,2.78,0,0,0-.69-.5l-.4-.25-.46-.17c-.15-.06-.3-.13-.46-.18l-.51-.09a4,4,0,0,0-1-.08,5,5,0,0,0-1,.1,4.76,4.76,0,0,0-1,.28l-.25.09-.1,0-.11,0-.43.2c-.28.14-.55.28-.79.42l-.65.38a5.4,5.4,0,0,0-.45.31.92.92,0,0,0-.25.22l-.08.11-.13.18a.21.21,0,0,1-.34-.25A.23.23,0,0,1,180.06,62.59Z" transform="translate(0 -11.02)"/><path d="M156,60.4c.58,1.06,1.18,2.12,1.75,3.19l1.52,3.33,1.27,3.44c.36,1.16.68,2.34,1,3.52a.34.34,0,0,1-.22.41h0a20.86,20.86,0,0,0-2.51.93,6,6,0,0,0-1.11.64c-.34.24-.57.56-.48.79a1.75,1.75,0,0,0,.84.75,8.81,8.81,0,0,0,1.21.52,22.06,22.06,0,0,0,2.59.75.18.18,0,0,1,.12.21.17.17,0,0,1-.19.12,22.57,22.57,0,0,1-2.68-.61,8.38,8.38,0,0,1-1.31-.5,4.57,4.57,0,0,1-.62-.39,1.63,1.63,0,0,1-.52-.65,1.07,1.07,0,0,1,.11-.91,2.29,2.29,0,0,1,.53-.58,6.81,6.81,0,0,1,1.23-.74,22.46,22.46,0,0,1,2.58-1l-.23.41-1-3.47-1.22-3.4-1.4-3.33-1.57-3.29a.17.17,0,0,1,.08-.22A.16.16,0,0,1,156,60.4Z" transform="translate(0 -11.02)"/><path class="cls-6" d="M210.5,80.68c-4.82,0-6.63-1.89-7.07-7-.41-4.43,2.83-9.31,8.34-8.08s7,5.77,6.5,9.47S215.32,80.67,210.5,80.68Z" transform="translate(0 -11.02)"/><path class="cls-20" d="M210.09,54.38c-6.29-.8-9.68,6.49-9.13,7.21s6.72-2.45,10.11-2.28,10.26,4.65,10.6,3.9C222.56,61.26,216.37,55.19,210.09,54.38Z" transform="translate(0 -11.02)"/><path class="cls-20" d="M210.19,79.84c-3.23-.2-5.66-3.27-5.44-6.84s3-6.31,6.25-6.11,5.66,3.27,5.44,6.84S213.41,80,210.19,79.84Z" transform="translate(0 -11.02)"/><path d="M205.66,63.93l.31-.41.37-.46c.17-.17.39-.34.62-.53a3.88,3.88,0,0,1,.81-.52l.47-.24.53-.15c.18,0,.36-.11.55-.15l.58,0a4.26,4.26,0,0,1,1.18,0,6.31,6.31,0,0,1,2.18.75,7.5,7.5,0,0,1,1.6,1.15,7,7,0,0,1,1,1,1.33,1.33,0,0,1,.23.38l.06.16a.17.17,0,0,1-.1.2.15.15,0,0,1-.17-.06l-.07-.09-.05-.08a1.13,1.13,0,0,0-.21-.24,9.32,9.32,0,0,0-1-.84,9.64,9.64,0,0,0-1.57-1,4.36,4.36,0,0,0-.94-.4,4.52,4.52,0,0,0-1-.23,4.06,4.06,0,0,0-1,0l-.52,0-.48.12-.48.11-.42.19a3,3,0,0,0-.75.41c-.21.15-.42.28-.59.41l-.42.41-.37.36a.16.16,0,0,1-.24,0A.17.17,0,0,1,205.66,63.93Z" transform="translate(0 -11.02)"/><path d="M236.56,65.63l-2,3.06-1.8,3.13-1.64,3.23-1.41,3.32-.18-.44A20.53,20.53,0,0,1,232,79.24a5.78,5.78,0,0,1,1.12.88,2.42,2.42,0,0,1,.45.65,1.07,1.07,0,0,1,0,.91,1.55,1.55,0,0,1-.59.58,3.29,3.29,0,0,1-.67.3,8.45,8.45,0,0,1-1.36.34c-.91.15-1.83.22-2.74.28a.17.17,0,0,1,0-.34,23.74,23.74,0,0,0,2.66-.42,9.24,9.24,0,0,0,1.27-.37,1.73,1.73,0,0,0,.92-.64c.12-.22-.07-.56-.37-.84a6.79,6.79,0,0,0-1-.78,22.12,22.12,0,0,0-2.37-1.23h0a.33.33,0,0,1-.17-.43c.47-1.12.94-2.25,1.44-3.37l1.69-3.24,1.93-3.12c.7-1,1.42-2,2.13-3a.17.17,0,0,1,.24,0A.16.16,0,0,1,236.56,65.63Z" transform="translate(0 -11.02)"/><path d="M192.45,85.4s.27.19.64.51.83.76,1.29,1.22.87,1,1.17,1.33.48.65.48.65a.16.16,0,0,1,0,.24.18.18,0,0,1-.2,0s-.26-.19-.63-.51-.84-.76-1.29-1.22-.88-1-1.18-1.33-.48-.65-.48-.65a.18.18,0,0,1,0-.24A.17.17,0,0,1,192.45,85.4Z" transform="translate(0 -11.02)"/><path d="M198.08,89.59s.14-.25.39-.61.62-.8,1-1.24.78-.84,1.1-1.13.56-.48.56-.48a.18.18,0,0,1,.24,0,.18.18,0,0,1,0,.19s-.15.25-.4.61-.61.8-1,1.24-.78.84-1.1,1.13-.56.48-.56.48a.18.18,0,0,1-.24,0A.18.18,0,0,1,198.08,89.59Z" transform="translate(0 -11.02)"/><path d="M181.83,87.55,184,88.79c1.26.77,3,1.73,4.63,2.73l2.5,1.42c.41.21.78.46,1.15.65l1.05.55c1.29.69,2.15,1.18,2.15,1.18h0a.18.18,0,0,1,.07.23.18.18,0,0,1-.21.07s-.91-.39-2.25-1c-.67-.32-1.47-.66-2.27-1.11l-2.54-1.38-2.47-1.51c-.79-.48-1.49-1-2.1-1.38-1.22-.84-2-1.41-2-1.41a.17.17,0,0,1,0-.24A.17.17,0,0,1,181.83,87.55Z" transform="translate(0 -11.02)"/><path d="M198.75,95.27s.7-.57,1.78-1.38,2.54-1.85,4-2.89,2.88-2.13,4-2.9,1.86-1.27,1.86-1.27h0a.17.17,0,0,1,.23.05.18.18,0,0,1,0,.22s-.69.59-1.74,1.44-2.48,2-3.91,3-3,2-4.1,2.76-1.91,1.2-1.91,1.2a.17.17,0,0,1-.23-.05A.17.17,0,0,1,198.75,95.27Z" transform="translate(0 -11.02)"/><path d="M194.07,98.58l.29.12c.19.06.46.21.78.29l.5.15c.18.06.39.08.58.13a8.73,8.73,0,0,0,1.29.17h.65a4.5,4.5,0,0,0,.64,0c.21,0,.41,0,.6-.06l.53-.09c.33,0,.6-.14.8-.18L201,99h0a.17.17,0,0,1,.2.13.15.15,0,0,1-.09.18l-.29.14a5.59,5.59,0,0,1-.8.33,6.91,6.91,0,0,1-1.2.27,5,5,0,0,1-.69.07h-.71c-.24,0-.48-.06-.72-.09a3.91,3.91,0,0,1-.68-.14,6,6,0,0,1-1.16-.42,4.41,4.41,0,0,1-.74-.43l-.26-.18a.16.16,0,0,1,0-.23A.17.17,0,0,1,194.07,98.58Z" transform="translate(0 -11.02)"/><path d="M160,45.39s1.68-.7,4.15-1.81c1.24-.55,2.67-1.21,4.19-2s3.12-1.57,4.73-2.4l2.35-1.3c.79-.41,1.52-.88,2.25-1.32s1.44-.83,2.08-1.27l1.83-1.19c1.15-.72,2-1.41,2.7-1.85l1-.72h0a.16.16,0,0,1,.23,0,.16.16,0,0,1,0,.22l-1,.77c-.64.47-1.49,1.24-2.63,2L180,35.84c-.63.46-1.35.87-2.07,1.33s-1.46.92-2.25,1.35l-2.36,1.33c-1.62.82-3.22,1.67-4.78,2.37s-3,1.34-4.26,1.86-2.33.9-3.06,1.19l-1.17.43a.17.17,0,0,1-.22-.09A.18.18,0,0,1,160,45.39Z" transform="translate(0 -11.02)"/><path d="M209,30.93l.81.9.93,1A13.81,13.81,0,0,0,212,34.13c.47.45,1,.94,1.53,1.45s1.19,1,1.81,1.52,1.28,1.07,2,1.57l2.1,1.56,2.14,1.49c.71.51,1.43,1,2.11,1.41,1.38.91,2.67,1.74,3.78,2.45l3.7,2.38a.18.18,0,0,1,.05.24.18.18,0,0,1-.23,0l-1-.6c-.66-.39-1.63-.92-2.75-1.61s-2.47-1.46-3.85-2.36c-.7-.45-1.43-.89-2.14-1.39l-2.17-1.49c-.72-.51-1.41-1.06-2.11-1.59s-1.36-1.06-2-1.6-1.24-1-1.8-1.58l-1.52-1.53a12,12,0,0,1-1.22-1.33c-.33-.42-.63-.78-.87-1.08l-.76-.94a.16.16,0,0,1,0-.23A.17.17,0,0,1,209,30.93Z" transform="translate(0 -11.02)"/><path d="M157.61,37.41s.51-.27,1.28-.64,1.83-.82,2.88-1.26,2-1,2.82-1.31,1.32-.54,1.32-.54h0a.16.16,0,0,1,.21.1.17.17,0,0,1-.06.2s-.49.31-1.24.73-1.77,1-2.79,1.48-2.13.83-2.94,1.11-1.36.44-1.36.44a.18.18,0,0,1-.21-.12A.17.17,0,0,1,157.61,37.41Z" transform="translate(0 -11.02)"/><path d="M225.47,33.37s.45.25,1.09.66,1.49,1,2.32,1.6,1.73,1,2.36,1.46,1,.73,1,.73h0a.16.16,0,0,1,0,.23.16.16,0,0,1-.2.06s-.48-.21-1.17-.56-1.6-.85-2.51-1.36-1.63-1.23-2.22-1.72-1-.84-1-.84a.17.17,0,0,1,0-.24A.17.17,0,0,1,225.47,33.37Z" transform="translate(0 -11.02)"/><path d="M200,26.37s.36-.7.94-1.73,1.38-2.39,2.2-3.74,1.68-2.67,2.34-3.65,1.13-1.62,1.13-1.62a.15.15,0,0,1,.23,0,.16.16,0,0,1,0,.21s-.36.7-.94,1.74-1.39,2.38-2.2,3.73-1.68,2.67-2.35,3.65-1.12,1.63-1.12,1.63a.17.17,0,0,1-.28-.18Z" transform="translate(0 -11.02)"/><path class="cls-6" d="M194.8,84.09l.24.14c.15.11.37.2.59.33a6.09,6.09,0,0,0,.78.33,3.28,3.28,0,0,0,.41.08,1.14,1.14,0,0,0,.37,0,1.61,1.61,0,0,0,.36-.1,2.24,2.24,0,0,0,.36-.21,4.78,4.78,0,0,0,.63-.55c.18-.21.36-.37.45-.51l.18-.19,0,0a.36.36,0,0,1,.5,0,.38.38,0,0,1,.09.29,4,4,0,0,1-.32,1,3.68,3.68,0,0,1-.7,1,2.43,2.43,0,0,1-.59.43,2.75,2.75,0,0,1-.76.27,2.68,2.68,0,0,1-.8,0,2.43,2.43,0,0,1-.69-.22,3.41,3.41,0,0,1-1-.7,3.3,3.3,0,0,1-.49-.62,1.82,1.82,0,0,1-.14-.24.35.35,0,0,1,.15-.47A.36.36,0,0,1,194.8,84.09Z" transform="translate(0 -11.02)"/><path d="M153.94,84.52l.29.79c.2.49.43,1.23.8,2.06.18.42.38.87.58,1.35s.48,1,.72,1.48.5,1,.82,1.55l.92,1.56,1,1.5a17.21,17.21,0,0,0,1.05,1.41c.36.44.66.9,1,1.28l1,1.1c.59.69,1.17,1.19,1.54,1.57l.6.59h0a.18.18,0,0,1,0,.24.17.17,0,0,1-.23,0l-.64-.55-.74-.63a8,8,0,0,1-.93-.86l-1-1.08c-.38-.37-.72-.83-1.09-1.27a17.63,17.63,0,0,1-1.08-1.42l-1.05-1.53-.92-1.6a17,17,0,0,1-.81-1.59c-.25-.53-.51-1-.69-1.53l-.53-1.4c-.35-.87-.5-1.62-.67-2.13s-.23-.81-.23-.81a.16.16,0,0,1,.11-.21A.17.17,0,0,1,153.94,84.52Z" transform="translate(0 -11.02)"/><path d="M156.62,54.66s.43,0,1.07.07l.52.06a5,5,0,0,0,.55,0l1.2,0c.4,0,.81-.11,1.19-.16.19,0,.39,0,.56-.08l.48-.14c.6-.16,1-.24,1-.24h0a.17.17,0,0,1,.11.31s-.39.2-1,.46a3.74,3.74,0,0,1-1.07.34c-.4.08-.84.17-1.27.23l-1.32,0a2.65,2.65,0,0,1-.58-.06l-.51-.12c-.62-.15-1-.28-1-.28a.16.16,0,0,1-.11-.21A.17.17,0,0,1,156.62,54.66Z" transform="translate(0 -11.02)"/><path d="M227.42,54.6s.44.11,1.09.31l.52.17c.19.06.39.08.59.14l1.25.29,1.28.2c.2,0,.4.09.59.1l.54,0c.66.06,1.11.13,1.11.13h0a.17.17,0,0,1,.14.19.18.18,0,0,1-.15.14s-.45,0-1.14.07l-.56,0a3.28,3.28,0,0,1-.62,0l-1.35-.16-1.32-.37a5,5,0,0,1-1.1-.42c-.61-.28-1-.5-1-.5a.18.18,0,0,1-.07-.23A.19.19,0,0,1,227.42,54.6Z" transform="translate(0 -11.02)"/><path class="cls-6" d="M186.44,70.89a2.27,2.27,0,0,1,.64-.39,3.07,3.07,0,0,1,2.71.17,2.36,2.36,0,0,1,.59.47,1,1,0,0,1-.08,1.34,2.39,2.39,0,0,1-.64.38A3,3,0,0,1,187,72.7a2.36,2.36,0,0,1-.59-.47A1,1,0,0,1,186.44,70.89Z" transform="translate(0 -11.02)"/><path class="cls-6" d="M213,72.56a2.43,2.43,0,0,1,.64-.4,3,3,0,0,1,1.37-.23,3.11,3.11,0,0,1,1.34.41,2.36,2.36,0,0,1,.59.47,1,1,0,0,1-.09,1.33,2.27,2.27,0,0,1-.64.39,3,3,0,0,1-1.37.24,3,3,0,0,1-1.34-.4,2.36,2.36,0,0,1-.59-.47A1,1,0,0,1,213,72.56Z" transform="translate(0 -11.02)"/><path d="M176,72.46s0-.1,0-.3a5.64,5.64,0,0,1-.06-.89,7.63,7.63,0,0,1,.1-1.44,8,8,0,0,1,.47-1.83,8.06,8.06,0,0,1,1.1-2,7.94,7.94,0,0,1,1.87-1.83,9,9,0,0,1,2.49-1.23,11.56,11.56,0,0,1,2.78-.48c.22,0,.4,0,.63,0l.8.07a8.62,8.62,0,0,1,1.48.32,7.76,7.76,0,0,1,2.51,1.47,7.41,7.41,0,0,1,1.62,2.11,8.45,8.45,0,0,1,.78,2.16,8.71,8.71,0,0,1,.17,1.89,7.08,7.08,0,0,1-.15,1.44,6,6,0,0,1-.22.89c-.06.2-.1.31-.1.31a.67.67,0,0,1-.84.45.69.69,0,0,1-.48-.66V72.8s0-.1,0-.28a6.73,6.73,0,0,0,0-.76,9.47,9.47,0,0,0-.12-1.17,10.94,10.94,0,0,0-.4-1.44,7.42,7.42,0,0,0-.78-1.5,5.57,5.57,0,0,0-1.21-1.31,5.31,5.31,0,0,0-1.64-.84,6.48,6.48,0,0,0-.92-.18l-.43,0c-.18,0-.4,0-.6,0a9.17,9.17,0,0,0-2.07.31,8.76,8.76,0,0,0-1.82.78,6.78,6.78,0,0,0-1.42,1.16,6.65,6.65,0,0,0-1,1.37,8,8,0,0,0-.62,1.36,8.61,8.61,0,0,0-.33,1.12,5.45,5.45,0,0,0-.15.78c0,.2-.05.3-.05.3a.68.68,0,0,1-1.35,0Z" transform="translate(0 -11.02)"/><path d="M202.76,73.72s0-.1,0-.29a4.29,4.29,0,0,1-.12-.88,7.38,7.38,0,0,1,0-1.47,9.12,9.12,0,0,1,.41-1.86,7.82,7.82,0,0,1,1.05-2A7.13,7.13,0,0,1,206,65.28a7.53,7.53,0,0,1,2.67-1.14,8.36,8.36,0,0,1,2.95,0l.35.06h.14l.1,0,.15,0,.6.17c.38.11.91.33,1.35.5a9.6,9.6,0,0,1,2.31,1.54,7.91,7.91,0,0,1,1.62,2,7.78,7.78,0,0,1,.84,2.14,8.34,8.34,0,0,1,.24,1.88,7.66,7.66,0,0,1-.08,1.43,5.89,5.89,0,0,1-.17.89l-.08.31a.67.67,0,0,1-1.33-.13V75s0-.09,0-.28a6.43,6.43,0,0,0-.05-.77,8.86,8.86,0,0,0-.18-1.17,8.53,8.53,0,0,0-.44-1.43,7.15,7.15,0,0,0-.83-1.49,6.31,6.31,0,0,0-1.27-1.32,7.92,7.92,0,0,0-1.7-1c-.33-.11-.55-.23-1-.34l-.6-.15-.15,0h0l.06,0h-.1l-.26,0a5.83,5.83,0,0,0-2,0,5.53,5.53,0,0,0-1.73.63A6.07,6.07,0,0,0,206,68.69a8.23,8.23,0,0,0-1,1.39,14.43,14.43,0,0,0-.57,1.37c-.12.44-.22.82-.27,1.12a5.66,5.66,0,0,0-.1.79l0,.3a.69.69,0,0,1-.75.62A.68.68,0,0,1,202.76,73.72Z" transform="translate(0 -11.02)"/><path class="cls-6" d="M202.6,11.93l1.67.26.88.14,1,.26,1.19.3c.42.11.83.29,1.28.44s.9.32,1.37.51l1.43.66a12.08,12.08,0,0,1,1.47.76c.49.28,1,.56,1.49.88a35.79,35.79,0,0,1,2.93,2.14c1,.75,1.87,1.63,2.79,2.48s1.72,1.82,2.48,2.78,1.5,1.92,2.21,2.84,1.3,1.9,1.83,2.82,1.06,1.78,1.49,2.6.83,1.58,1.16,2.26.61,1.27.83,1.77l.68,1.55a.34.34,0,0,1-.61.3h0l-.8-1.48c-.5-.95-1.26-2.28-2.2-3.84-.46-.79-1-1.63-1.58-2.5s-1.24-1.75-1.87-2.69-1.39-1.86-2.18-2.74-1.61-1.79-2.45-2.65-1.72-1.7-2.65-2.43-1.86-1.44-2.78-2.09c-.47-.32-1-.58-1.41-.87a12.15,12.15,0,0,0-1.38-.79l-1.35-.69c-.44-.2-.88-.37-1.29-.55-.84-.36-1.62-.62-2.31-.84l-1-.32-.86-.2-1.65-.4a.32.32,0,0,1-.24-.4A.34.34,0,0,1,202.6,11.93Z" transform="translate(0 -11.02)"/><circle class="cls-18" cx="159.68" cy="73.6" r="2"/><path class="cls-18" d="M230.31,87.79a2,2,0,1,1,2,2A2,2,0,0,1,230.31,87.79Z" transform="translate(0 -11.02)"/></g><path class="cls-16" d="M391.67,166.45s.66-.21,1.91-.54a40,40,0,0,1,5.53-1.14,11.87,11.87,0,0,1,2-.06,4,4,0,0,1,1.19.23,2.37,2.37,0,0,1,.66.42,3.76,3.76,0,0,1,.43.55,32,32,0,0,1,1.94,4.4l1.9,5c.68,1.72,1.39,3.55,2.29,5.32a10.66,10.66,0,0,0,1.55,2.4l.22.19.18.11s.09.05.08,0h0c-.39.09-.08,0-.16,0l0,0h.05l-.09,0a.36.36,0,0,0-.16.11l0,0s0,0,0,0a1,1,0,0,0,.08-.26,4.24,4.24,0,0,0,.13-.69,46.24,46.24,0,0,0,.07-6.69c-.2-4.66-.6-9.61-.94-14.73s-.75-10.41-.95-15.83a60.92,60.92,0,0,1,.14-8.3,6.48,6.48,0,0,1,.68-2.41,3,3,0,0,1,.33-.41,1.59,1.59,0,0,1,.62-.4l.21-.06a1.89,1.89,0,0,1,.37,0h.12a1.92,1.92,0,0,1,.76.28,3.22,3.22,0,0,1,1,1.14,19.8,19.8,0,0,1,1.61,4.06c1.57,5.36,2.61,10.73,3.71,16s2.09,10.49,3.19,15.48c.55,2.49,1.12,4.94,1.81,7.25.18.57.36,1.13.58,1.65a5.21,5.21,0,0,0,.33.71,1.41,1.41,0,0,0,.16.24c0,.07.07.05-.08,0a.71.71,0,0,0-.39,0l.22-.06c0-.05-.17.09-.09,0a1.4,1.4,0,0,0,.24-.43,7,7,0,0,0,.33-1.51,57.82,57.82,0,0,0,.15-6.71,48.83,48.83,0,0,1,.19-6.53,8.34,8.34,0,0,1,.36-1.64,4.14,4.14,0,0,1,.37-.85l.15-.22.07-.11.1-.11,0,0a1.46,1.46,0,0,1,.31-.27,4.63,4.63,0,0,1,.46-.31l.39-.18a6.4,6.4,0,0,1,.75-.29c.5-.16,1-.28,1.45-.39a45.12,45.12,0,0,1,5.36-.74c3.36-.29,6.27-.38,8.68-.44,4.8-.1,7.54,0,7.54,0h0a.54.54,0,0,1,.52.55.55.55,0,0,1-.53.52s-2.73,0-7.5.24c-2.38.12-5.28.28-8.57.66a43.9,43.9,0,0,0-5.14.84c-.43.11-.87.23-1.28.38-.2.08-.42.14-.6.23l-.27.13-.15.09c-.51.32-.67,1.25-.8,2.2a49.68,49.68,0,0,0-.09,6.27,56.45,56.45,0,0,1-.06,7,8.8,8.8,0,0,1-.41,2,3.1,3.1,0,0,1-.65,1.11,2,2,0,0,1-.81.54l-.21.06a1.4,1.4,0,0,1-.84,0,1.93,1.93,0,0,1-.76-.58,4.26,4.26,0,0,1-.35-.51,9,9,0,0,1-.46-.94c-.26-.61-.46-1.21-.66-1.81-.77-2.42-1.34-4.89-1.92-7.4-1.13-5-2.17-10.23-3.27-15.5s-2.2-10.64-3.73-15.79A20.12,20.12,0,0,0,412,136.2a1.74,1.74,0,0,0-.3-.41.4.4,0,0,0,.16.07h.24l.09,0c.13-.07.15-.07.2-.13s0,0,0,0a5.22,5.22,0,0,0-.37,1.53,58.1,58.1,0,0,0-.17,7.94c.17,5.36.54,10.64.87,15.76s.65,10.08.78,14.81a48.18,48.18,0,0,1-.19,7,5.59,5.59,0,0,1-.19.92,3.23,3.23,0,0,1-.18.52,2.49,2.49,0,0,1-.17.31,1.3,1.3,0,0,1-.15.19,1.48,1.48,0,0,1-.31.25l-.16.1h-.05l-.05,0c-.11,0,.17,0-.25.06a2.67,2.67,0,0,1-.4,0,2.13,2.13,0,0,1-.69-.2c-.18-.1-.33-.21-.5-.32l-.37-.35a12.15,12.15,0,0,1-1.84-2.87,105.65,105.65,0,0,1-4-10.54,31.17,31.17,0,0,0-1.71-4.2c-.1-.14-.05-.14-.21-.3s-.16-.08-.22-.14A2.89,2.89,0,0,0,401,166a10.33,10.33,0,0,0-1.76,0,39.21,39.21,0,0,0-5.38,1c-1.24.3-1.89.49-1.89.49a.54.54,0,0,1-.31-1Z" transform="translate(0 -11.02)"/><path class="cls-16" d="M.32,252.64l2.47-1.1c1.62-.7,4-1.72,7.05-2.93,1.53-.59,3.24-1.25,5.13-1.88.95-.32,1.94-.63,3-.91.53-.14,1.08-.26,1.66-.36a8.69,8.69,0,0,1,.92-.09,3.06,3.06,0,0,1,.52,0l.29,0a2.24,2.24,0,0,1,.34.11l.08,0s.2.11.14.08l.09.06a.77.77,0,0,1,.19.15,4.53,4.53,0,0,1,.44.43c.21.26.4.52.57.77.35.52.66,1,1,1.58.61,1.08,1.19,2.19,1.78,3.34l3.62,7.2c.64,1.25,1.3,2.51,2,3.76a26.91,26.91,0,0,0,2.36,3.6,5.22,5.22,0,0,0,.67.72,2,2,0,0,0,.47.31s0,0-.06,0l-.12.06.06,0s0,0,0,0l-.1.07a.27.27,0,0,0-.07.08h0l0-.14a5.47,5.47,0,0,0,.06-1,33.15,33.15,0,0,0-.57-4.57c-1.15-6.27-2.86-12.86-4.46-19.7-.81-3.43-1.64-6.91-2.33-10.5-.16-.9-.32-1.81-.45-2.74a13.59,13.59,0,0,1-.16-3,3,3,0,0,1,.11-.52,3.42,3.42,0,0,1,.13-.34,2.2,2.2,0,0,1,.33-.44,2.37,2.37,0,0,1,.33-.22,2.42,2.42,0,0,1,.45-.13l.17,0h.17a1.26,1.26,0,0,1,.27,0,2,2,0,0,1,.49.15,4.11,4.11,0,0,1,1.35,1.3,18.54,18.54,0,0,1,1.48,2.54c1.66,3.39,3,6.88,4.55,10.18A22.16,22.16,0,0,0,38,241a4.58,4.58,0,0,0,.67.83.09.09,0,0,1,.07,0s0,0-.15,0a.25.25,0,0,0-.15,0c-.41.18-.07,0-.15.06s.08-.05,0,0c-.35.3-.22.28-.25.27a4,4,0,0,0,0-1c0-.43-.08-.87-.14-1.31-.12-.89-.28-1.8-.45-2.7C36,229.9,34,222.66,32.26,215.47c-.43-1.81-.85-3.6-1.2-5.44a24.5,24.5,0,0,1-.39-2.85,6,6,0,0,1,0-.84,2.31,2.31,0,0,1,.14-.61,1.39,1.39,0,0,1,.27-.47,1.33,1.33,0,0,1,.35-.28c-.11-.06.68-.19.59-.16h.16a1.47,1.47,0,0,1,.45.14,1,1,0,0,1,.29.18l.12.11a2.83,2.83,0,0,1,.35.38,7.76,7.76,0,0,1,.45.66,49.33,49.33,0,0,1,2.45,4.95c.73,1.65,1.42,3.28,2.1,4.91,2.7,6.51,5.12,12.86,7.47,18.86q1.77,4.48,3.45,8.72c1.13,2.79,2.23,5.52,3.43,8,.15.3.31.6.46.86a3.42,3.42,0,0,0,.22.34s.08.08,0,0l-.16-.06a.6.6,0,0,0-.42,0c-.39.18-.08,0-.15.06l.06,0c.08-.05-.08,0-.1,0s-.1.16-.09.12a.62.62,0,0,0,0-.1,2.78,2.78,0,0,0,0-.37,7,7,0,0,0,0-.92c-.06-1.27-.23-2.58-.39-3.84-.33-2.53-.7-4.94-.89-7.25a13.41,13.41,0,0,1,0-3.52,3.15,3.15,0,0,1,.15-.51l.06-.13.07-.13,0,0,.11-.16a4.16,4.16,0,0,1,.42-.42l.38-.27a9.55,9.55,0,0,1,1.46-.74,39.59,39.59,0,0,1,5.29-1.61c3.21-.77,5.75-1.23,7.49-1.54l2.67-.45a.53.53,0,0,1,.19,1.05h0l-2.64.49c-1.71.35-4.23.85-7.38,1.68a38,38,0,0,0-5.07,1.64,9.56,9.56,0,0,0-1.23.65l-.25.19-.14.12-.11.16,0,0s.07-.12,0,0l0,0a1.2,1.2,0,0,0-.07.26,12.89,12.89,0,0,0,0,3.09c.23,2.23.65,4.62,1,7.17.19,1.28.38,2.58.46,4,0,.36,0,.72,0,1.11a3.93,3.93,0,0,1-.09.64c0,.11-.08.27-.12.4a1.64,1.64,0,0,1-.47.58l-.06,0c-.11.05.17-.07-.26.13a1.23,1.23,0,0,1-.54,0,.69.69,0,0,1-.27-.13,1.41,1.41,0,0,1-.41-.37,5.53,5.53,0,0,1-.36-.52c-.2-.33-.37-.65-.54-1-1.29-2.58-2.4-5.28-3.58-8.08s-2.32-5.72-3.54-8.7c-2.41-6-4.93-12.29-7.62-18.76-.68-1.61-1.37-3.24-2.09-4.85a49,49,0,0,0-2.34-4.7l-.32-.47-.1-.12h0s0,0,.15.08a.57.57,0,0,0,.31.06c.11,0,0,0,0,0-.15,0,.59-.1.43-.11a.91.91,0,0,0,.22-.18.78.78,0,0,0,.12-.18c0-.06,0,0,0,.06a4.75,4.75,0,0,0,0,.52,22.47,22.47,0,0,0,.36,2.56c.34,1.76.76,3.54,1.19,5.33,1.73,7.15,3.81,14.35,5.34,21.77.18.94.35,1.88.48,2.84.06.49.12,1,.14,1.49a5.1,5.1,0,0,1-.14,1.79,1.75,1.75,0,0,1-.14.34,1.77,1.77,0,0,1-.43.54,1.37,1.37,0,0,1-.18.12c-.12.05.17-.06-.29.13a2.87,2.87,0,0,1-.5.07,2,2,0,0,1-.84-.19,4.45,4.45,0,0,1-.51-.33,6.15,6.15,0,0,1-1.12-1.32,23,23,0,0,1-1.42-2.59c-1.64-3.44-2.93-6.94-4.51-10.18A18.26,18.26,0,0,0,29,227.2a2.47,2.47,0,0,0-.57-.63.37.37,0,0,0,.16.05l.11,0s0,0,0,0l-.17,0c-.26,0,.23-.05.28-.08a.64.64,0,0,0,.19-.13.46.46,0,0,0,.13-.16v0a.38.38,0,0,0,0,.15,11.91,11.91,0,0,0,.14,2.45c.12.87.27,1.75.43,2.63.66,3.51,1.47,7,2.27,10.41,1.59,6.84,3.22,13.43,4.33,19.85a34.19,34.19,0,0,1,.54,4.89,6.87,6.87,0,0,1-.12,1.37,2,2,0,0,1-.47,1,1.56,1.56,0,0,1-1.27.47,2.89,2.89,0,0,1-1.52-.77,7.8,7.8,0,0,1-.89-.95A30.57,30.57,0,0,1,30,263.81c-.72-1.3-1.37-2.59-2-3.85l-3.53-7.26c-.56-1.14-1.11-2.25-1.68-3.3-.29-.52-.58-1-.88-1.49a5.71,5.71,0,0,0-.46-.65c-.08-.11-.11-.12-.16-.2s-.1-.08-.14-.12l-.09-.06c-.09,0,.07,0,.05,0h0a3.33,3.33,0,0,0-1.27,0c-.51.07-1,.18-1.53.3-1,.24-2,.53-2.92.82-1.86.58-3.56,1.2-5.1,1.76-3.06,1.14-5.44,2.11-7.06,2.77l-2.48,1h0a.53.53,0,0,1-.7-.28A.53.53,0,0,1,.32,252.64Z" transform="translate(0 -11.02)"/><path class="cls-16" d="M327.77,47.83l-2.69-.24c-1.75-.17-4.32-.43-7.58-.85-1.64-.22-3.44-.48-5.41-.84-1-.18-2-.38-3.06-.66a15.61,15.61,0,0,1-1.62-.49,8.77,8.77,0,0,1-.86-.36,3.82,3.82,0,0,1-.45-.27l-.23-.16-.25-.27-.05-.06s-.12-.2-.09-.14l0-.1a.76.76,0,0,1-.1-.22c-.06-.19-.14-.44-.17-.59-.06-.33-.1-.65-.13-.95C305,41,305,40.39,305,39.77c0-1.23,0-2.49.06-3.77q.15-3.84.32-8.06c.05-1.4.08-2.82.06-4.27a26.51,26.51,0,0,0-.31-4.29,5.06,5.06,0,0,0-.25-.95,1.57,1.57,0,0,0-.26-.5,0,0,0,0,0,.06,0h.06s-.05,0,0,0h.12a.31.31,0,0,0,.1,0h0s0,0,0,0l-.1.11a4.76,4.76,0,0,0-.51.81,32,32,0,0,0-1.73,4.27c-2,6.05-3.72,12.63-5.64,19.4-.95,3.38-1.91,6.83-3.05,10.31-.29.86-.59,1.74-.93,2.61a13.16,13.16,0,0,1-1.32,2.71,4.89,4.89,0,0,1-.34.4l-.28.23a2,2,0,0,1-.51.22,1.26,1.26,0,0,1-.39,0,1.71,1.71,0,0,1-.45-.1l-.16-.07a.51.51,0,0,1-.15-.08l-.21-.16a1.73,1.73,0,0,1-.35-.38,4,4,0,0,1-.56-1.79,18.2,18.2,0,0,1-.06-2.94c.18-3.77.74-7.45.95-11.11a21.29,21.29,0,0,0,0-2.65,4.13,4.13,0,0,0-.19-1,.16.16,0,0,1,0-.08c0,.06,0,0,.12.11a.23.23,0,0,0,.14,0c.45,0,.08,0,.15,0s-.08,0,0,0c.45-.1.33-.14.35-.12a4.07,4.07,0,0,0-.52.86c-.18.38-.35.79-.52,1.21-.32.84-.62,1.71-.9,2.59-2.24,7.07-3.95,14.39-5.93,21.52-.5,1.78-1,3.56-1.59,5.33a25,25,0,0,1-1,2.68,5.85,5.85,0,0,1-.42.74,2.55,2.55,0,0,1-.41.46,1.6,1.6,0,0,1-.47.28,1.34,1.34,0,0,1-.45.08,2.15,2.15,0,0,1-.59-.15l-.13-.09a1.52,1.52,0,0,1-.33-.34,1.27,1.27,0,0,1-.17-.3l-.05-.15a3.51,3.51,0,0,1-.12-.5c0-.29-.06-.54-.07-.79a49.53,49.53,0,0,1,.26-5.53q.24-2.68.54-5.31c.79-7,1.75-13.73,2.6-20.11.41-3.19.82-6.3,1.21-9.3s.73-5.92.87-8.65c0-.34,0-.68,0-1a2.25,2.25,0,0,0,0-.4s0-.1,0,0l.11.14a.64.64,0,0,0,.38.18c.41,0,.07,0,.15,0h-.07c-.09,0,.08,0,.12,0a.3.3,0,0,0,.13-.07s0,0-.07.07a2.89,2.89,0,0,0-.23.3,7.59,7.59,0,0,0-.45.8c-.57,1.15-1.05,2.37-1.52,3.55-.94,2.37-1.78,4.66-2.73,6.78a13.63,13.63,0,0,1-1.75,3.06,3.22,3.22,0,0,1-.37.37l-.12.08c.05,0-.12.09-.12.08l-.05,0-.17.08a3.86,3.86,0,0,1-.58.17l-.46,0a9.63,9.63,0,0,1-1.63-.06,41,41,0,0,1-5.41-1.15c-3.18-.88-5.63-1.72-7.3-2.28l-2.55-.91a.54.54,0,0,1-.33-.68.53.53,0,0,1,.67-.32h0l2.54.85c1.67.53,4.12,1.31,7.27,2.11a40.09,40.09,0,0,0,5.23,1,10.87,10.87,0,0,0,1.39,0l.31,0a.58.58,0,0,1,.18,0l.18-.09,0,0-.05,0,.05,0a1.24,1.24,0,0,0,.18-.2,12.56,12.56,0,0,0,1.46-2.72c.88-2.06,1.68-4.36,2.58-6.77.45-1.2.91-2.44,1.53-3.71a8.64,8.64,0,0,1,.54-1,4,4,0,0,1,.38-.52c.08-.09.2-.2.3-.29a1.64,1.64,0,0,1,.7-.28H282l.29,0a1,1,0,0,1,.48.26A.79.79,0,0,1,283,21a1.85,1.85,0,0,1,.17.52,5.3,5.3,0,0,1,.06.63c0,.39,0,.75,0,1.12-.12,2.88-.46,5.78-.79,8.8l-1.11,9.33c-.79,6.4-1.64,13.14-2.42,20.1-.19,1.75-.37,3.5-.52,5.27a46.57,46.57,0,0,0-.23,5.23,4.65,4.65,0,0,0,.05.57s0,.17,0,.15h0s0-.06-.09-.15a.63.63,0,0,0-.24-.19c-.11,0,0,0,0,0,.34.13-.35-.12-.44-.11a.88.88,0,0,0-.28,0c-.09,0-.19.11-.18.09s0,0,0,0,.16-.28.25-.46a22.63,22.63,0,0,0,.92-2.42c.56-1.7,1.05-3.46,1.54-5.23,1.95-7.1,3.62-14.4,5.88-21.64.29-.9.6-1.81.95-2.71.19-.46.38-.91.6-1.37a5.41,5.41,0,0,1,1-1.5,1.87,1.87,0,0,1,.93-.49.68.68,0,0,1,.21,0c.13,0-.18,0,.32,0a3.8,3.8,0,0,1,.47.18,2,2,0,0,1,.64.57,3.56,3.56,0,0,1,.29.54,6.23,6.23,0,0,1,.34,1.7,22.28,22.28,0,0,1,0,3c-.24,3.8-.8,7.49-1,11.09a18.32,18.32,0,0,0,0,2.58,2.68,2.68,0,0,0,.2.83.44.44,0,0,0-.12-.12l-.1,0c-.05,0-.05,0,0,0l.16.07c.25.08-.22-.07-.29-.07a.42.42,0,0,0-.22,0,.33.33,0,0,0-.19.08s0,0,0,0,0,0,.1-.12A12.69,12.69,0,0,0,291,54.67c.32-.82.61-1.66.9-2.51,1.12-3.4,2.1-6.83,3.06-10.2,1.92-6.76,3.69-13.32,5.83-19.47a32.86,32.86,0,0,1,1.9-4.54,6.83,6.83,0,0,1,.76-1.14,2.14,2.14,0,0,1,.88-.63,1.52,1.52,0,0,1,1.35.21,2.84,2.84,0,0,1,.95,1.41,7,7,0,0,1,.32,1.25,28.4,28.4,0,0,1,.29,4.61c0,1.49-.05,2.93-.11,4.34-.14,2.81-.29,5.5-.42,8.06-.07,1.28-.12,2.52-.13,3.71,0,.59,0,1.18.05,1.73a6.4,6.4,0,0,0,.08.79c0,.13,0,.16,0,.25s.05.12.07.17l0,.1c.05.09,0-.06,0-.05h0a3.56,3.56,0,0,0,1.11.61c.48.18,1,.34,1.48.48,1,.28,2,.5,3,.69,1.91.4,3.7.68,5.31.93,3.24.49,5.79.8,7.53,1l2.67.29h0a.54.54,0,0,1,.47.59A.53.53,0,0,1,327.77,47.83Z" transform="translate(0 -11.02)"/></g></g></svg>