<svg xmlns="http://www.w3.org/2000/svg" viewBox="0 0 1092.64 1836.05"><defs><style>.cls-1{fill:#c12732;}</style></defs><g id="Layer_2" data-name="Layer 2"><g id="Objects"><path class="cls-1" d="M983.45,1074.77c-28.26,12.28-62.52,20.38-103.72,20.38-99,0-157.87-46.71-189.85-85.89A251.43,251.43,0,0,1,647.38,933c-8.76-25-13.38-50.45-13.38-73.71,0-62.08,17.8-124.91,51.5-181.71,13.62-23,27.74-47.13,41.73-71.88C638,432.4,561.62,255.37,536.43,111.93,492.8,360.37,295.76,709.55,143.77,965.76,77.7,1077.13,32.84,1210.45,32.84,1355.94c0,174.55,137.9,480.11,503.59,480.11S1040,1530.49,1040,1355.94C1040,1255.32,1018.55,1160.52,983.45,1074.77ZM197.53,1552.42c-61-95.22-87.5-228.85-53.35-337.92,4.74,96.8,31,192.39,78.71,276.68,52.28,91.19,136.82,161.42,230.87,208.25,26.89,13.5,54.28,24.58,82.67,35.21C402,1739.44,270.75,1664.5,197.53,1552.42Z"/><path class="cls-1" d="M403.12,410.15q-23.44,53.34-51.87,111.32c-34,69.46-71.07,139.18-107.87,205.66a259,259,0,0,1-30.48,1.76C58.3,728.89,0,599.72,0,525.92,0,464.41,19,408.05,46.9,361,111.16,252.65,194.46,105,212.9,0c18.45,105,101.75,252.65,166,361A348.26,348.26,0,0,1,403.12,410.15Z"/><path class="cls-1" d="M1092.64,859.33c0,73.8-58.3,203-212.9,203s-212.9-129.18-212.9-203c0-61.5,19-117.87,46.9-165,64.25-108.32,147.55-255.94,166-361,18.44,105,101.74,252.65,166,361C1073.67,741.46,1092.64,797.83,1092.64,859.33Z"/></g></g></svg>